<svg width="340" height="565" viewBox="0 0 340 565" fill="none" xmlns="http://www.w3.org/2000/svg">
<path fill-rule="evenodd" clip-rule="evenodd" d="M334 0C334 4.60577 330.418 8.33948 326 8.33948C321.582 8.33948 318 4.60577 318 0H310C310 4.60577 306.418 8.33948 302 8.33948C297.582 8.33948 294 4.60577 294 0H286C286 4.60577 282.418 8.33948 278 8.33948C273.582 8.33948 270 4.60577 270 0H262C262 4.60577 258.418 8.33948 254 8.33948C249.582 8.33948 246 4.60577 246 0H238C238 4.60577 234.418 8.33948 230 8.33948C225.582 8.33948 222 4.60577 222 0H214C214 4.60577 210.418 8.33948 206 8.33948C201.582 8.33948 198 4.60577 198 0H190C190 4.60577 186.418 8.33948 182 8.33948C177.582 8.33948 174 4.60577 174 0H166C166 4.60577 162.418 8.33948 158 8.33948C153.582 8.33948 150 4.60577 150 0H142C142 4.60577 138.418 8.33948 134 8.33948C129.582 8.33948 126 4.60577 126 0H118C118 4.60577 114.418 8.33948 110 8.33948C105.582 8.33948 102 4.60577 102 0H94C94 4.60577 90.4183 8.33948 86 8.33948C81.5817 8.33948 78 4.60577 78 0H70C70 4.60577 66.4183 8.33948 62 8.33948C57.5817 8.33948 54 4.60577 54 0H46C46 4.60577 42.4183 8.33948 38 8.33948C33.5817 8.33948 30 4.60577 30 0H22C22 4.60577 18.4183 8.33948 14 8.33948C9.58172 8.33948 6 4.60577 6 0H0V565H6C6 560.394 9.58172 556.661 14 556.661C18.4183 556.661 22 560.394 22 565H30C30 560.394 33.5817 556.661 38 556.661C42.4183 556.661 46 560.394 46 565H54C54 560.394 57.5817 556.661 62 556.661C66.4183 556.661 70 560.394 70 565H78C78 560.394 81.5817 556.661 86 556.661C90.4183 556.661 94 560.394 94 565H102C102 560.394 105.582 556.661 110 556.661C114.418 556.661 118 560.394 118 565H126C126 560.394 129.582 556.661 134 556.661C138.418 556.661 142 560.394 142 565H150C150 560.394 153.582 556.661 158 556.661C162.418 556.661 166 560.394 166 565H174C174 560.394 177.582 556.661 182 556.661C186.418 556.661 190 560.394 190 565H198C198 560.394 201.582 556.661 206 556.661C210.418 556.661 214 560.394 214 565H222C222 560.394 225.582 556.661 230 556.661C234.418 556.661 238 560.394 238 565H246C246 560.394 249.582 556.661 254 556.661C258.418 556.661 262 560.394 262 565H270C270 560.394 273.582 556.661 278 556.661C282.418 556.661 286 560.394 286 565H294C294 560.394 297.582 556.661 302 556.661C306.418 556.661 310 560.394 310 565H318C318 560.394 321.582 556.661 326 556.661C330.418 556.661 334 560.394 334 565H340V0H334Z" fill="#F3F3F3"/>
</svg>
