<svg width="350" height="90" viewBox="0 0 350 90" fill="none" xmlns="http://www.w3.org/2000/svg">
<g filter="url(#filter0_d_206_2201)">
<path fill-rule="evenodd" clip-rule="evenodd" d="M263.886 3.78857C261.647 7.43291 256.273 10 250 10V14C250.552 14 251 14.4477 251 15V25C251 25.5523 250.552 26 250 26V34C250.552 34 251 34.4477 251 35V45C251 45.5523 250.552 46 250 46V54C250.552 54 251 54.4477 251 55V65C251 65.5523 250.552 66 250 66V70C256.273 70 261.647 72.5671 263.886 76.2114C265.043 78.0936 266.791 80 269 80H341C343.209 80 345 78.2091 345 76V4C345 1.79086 343.209 0 341 0H269C266.791 0 265.043 1.90641 263.886 3.78857Z" fill="#8F8F8F"/>
<path d="M276.027 31.75C277.691 31.75 278.992 32.3438 279.93 33.5312C281.047 34.9375 281.605 37.2695 281.605 40.5273C281.605 43.7773 281.043 46.1133 279.918 47.5352C278.988 48.707 277.691 49.293 276.027 49.293C274.355 49.293 273.008 48.6523 271.984 47.3711C270.961 46.082 270.449 43.7891 270.449 40.4922C270.449 37.2578 271.012 34.9297 272.137 33.5078C273.066 32.3359 274.363 31.75 276.027 31.75ZM276.027 34.4805C275.629 34.4805 275.273 34.6094 274.961 34.8672C274.648 35.1172 274.406 35.5703 274.234 36.2266C274.008 37.0781 273.895 38.5117 273.895 40.5273C273.895 42.543 273.996 43.9297 274.199 44.6875C274.402 45.4375 274.656 45.9375 274.961 46.1875C275.273 46.4375 275.629 46.5625 276.027 46.5625C276.426 46.5625 276.781 46.4375 277.094 46.1875C277.406 45.9297 277.648 45.4727 277.82 44.8164C278.047 43.9727 278.16 42.543 278.16 40.5273C278.16 38.5117 278.059 37.1289 277.855 36.3789C277.652 35.6211 277.395 35.1172 277.082 34.8672C276.777 34.6094 276.426 34.4805 276.027 34.4805ZM289.387 31.75C291.051 31.75 292.352 32.3438 293.289 33.5312C294.406 34.9375 294.965 37.2695 294.965 40.5273C294.965 43.7773 294.402 46.1133 293.277 47.5352C292.348 48.707 291.051 49.293 289.387 49.293C287.715 49.293 286.367 48.6523 285.344 47.3711C284.32 46.082 283.809 43.7891 283.809 40.4922C283.809 37.2578 284.371 34.9297 285.496 33.5078C286.426 32.3359 287.723 31.75 289.387 31.75ZM289.387 34.4805C288.988 34.4805 288.633 34.6094 288.32 34.8672C288.008 35.1172 287.766 35.5703 287.594 36.2266C287.367 37.0781 287.254 38.5117 287.254 40.5273C287.254 42.543 287.355 43.9297 287.559 44.6875C287.762 45.4375 288.016 45.9375 288.32 46.1875C288.633 46.4375 288.988 46.5625 289.387 46.5625C289.785 46.5625 290.141 46.4375 290.453 46.1875C290.766 45.9297 291.008 45.4727 291.18 44.8164C291.406 43.9727 291.52 42.543 291.52 40.5273C291.52 38.5117 291.418 37.1289 291.215 36.3789C291.012 35.6211 290.754 35.1172 290.441 34.8672C290.137 34.6094 289.785 34.4805 289.387 34.4805ZM296.125 49.293L300.379 31.5273H302.852L298.551 49.293H296.125ZM309.426 31.75C311.09 31.75 312.391 32.3438 313.328 33.5312C314.445 34.9375 315.004 37.2695 315.004 40.5273C315.004 43.7773 314.441 46.1133 313.316 47.5352C312.387 48.707 311.09 49.293 309.426 49.293C307.754 49.293 306.406 48.6523 305.383 47.3711C304.359 46.082 303.848 43.7891 303.848 40.4922C303.848 37.2578 304.41 34.9297 305.535 33.5078C306.465 32.3359 307.762 31.75 309.426 31.75ZM309.426 34.4805C309.027 34.4805 308.672 34.6094 308.359 34.8672C308.047 35.1172 307.805 35.5703 307.633 36.2266C307.406 37.0781 307.293 38.5117 307.293 40.5273C307.293 42.543 307.395 43.9297 307.598 44.6875C307.801 45.4375 308.055 45.9375 308.359 46.1875C308.672 46.4375 309.027 46.5625 309.426 46.5625C309.824 46.5625 310.18 46.4375 310.492 46.1875C310.805 45.9297 311.047 45.4727 311.219 44.8164C311.445 43.9727 311.559 42.543 311.559 40.5273C311.559 38.5117 311.457 37.1289 311.254 36.3789C311.051 35.6211 310.793 35.1172 310.48 34.8672C310.176 34.6094 309.824 34.4805 309.426 34.4805ZM322.785 31.75C324.449 31.75 325.75 32.3438 326.688 33.5312C327.805 34.9375 328.363 37.2695 328.363 40.5273C328.363 43.7773 327.801 46.1133 326.676 47.5352C325.746 48.707 324.449 49.293 322.785 49.293C321.113 49.293 319.766 48.6523 318.742 47.3711C317.719 46.082 317.207 43.7891 317.207 40.4922C317.207 37.2578 317.77 34.9297 318.895 33.5078C319.824 32.3359 321.121 31.75 322.785 31.75ZM322.785 34.4805C322.387 34.4805 322.031 34.6094 321.719 34.8672C321.406 35.1172 321.164 35.5703 320.992 36.2266C320.766 37.0781 320.652 38.5117 320.652 40.5273C320.652 42.543 320.754 43.9297 320.957 44.6875C321.16 45.4375 321.414 45.9375 321.719 46.1875C322.031 46.4375 322.387 46.5625 322.785 46.5625C323.184 46.5625 323.539 46.4375 323.852 46.1875C324.164 45.9297 324.406 45.4727 324.578 44.8164C324.805 43.9727 324.918 42.543 324.918 40.5273C324.918 38.5117 324.816 37.1289 324.613 36.3789C324.41 35.6211 324.152 35.1172 323.84 34.8672C323.535 34.6094 323.184 34.4805 322.785 34.4805Z" fill="white"/>
<path fill-rule="evenodd" clip-rule="evenodd" d="M224 0V80H229.667C231.876 80 233.638 78.0841 234.859 76.2426C237.285 72.5817 243.15 70 250 70V66H249.911C249.359 66 248.911 65.5523 248.911 65V55C248.911 54.4477 249.359 54 249.911 54H250V46H249.911C249.359 46 248.911 45.5523 248.911 45V35C248.911 34.4477 249.359 34 249.911 34H250V26H249.911C249.359 26 248.911 25.5523 248.911 25V15C248.911 14.4477 249.359 14 249.911 14H250V10C243.15 10 237.285 7.41825 234.859 3.75737C233.638 1.91587 231.876 0 229.667 0H224Z" fill="#DFDFDF"/>
<path d="M5 8C5 3.58172 8.58172 0 13 0H224V80H13C8.58172 80 5 76.4183 5 72V8Z" fill="#DFDFDF"/>
<path d="M35.12 31.46V49.58H36.78V31.46H35.12ZM27.24 32.86C24.58 32.86 22.66 35.32 22.66 39.16C22.66 43.02 24.58 45.48 27.24 45.48C29.92 45.48 31.84 43.02 31.84 39.16C31.84 35.32 29.92 32.86 27.24 32.86ZM27.24 34.36C29.02 34.36 30.24 36.24 30.24 39.16C30.24 42.1 29.02 44.02 27.24 44.02C25.48 44.02 24.24 42.1 24.24 39.16C24.24 36.24 25.48 34.36 27.24 34.36ZM54.0384 31.48V45.2H55.6184V31.48H54.0384ZM47.6984 36.72V38.08H51.1184V36.72H47.6984ZM50.5984 31.84V44.68H52.1784V31.84H50.5984ZM41.1984 32.92V41.78H48.1984V32.92H46.6184V35.96H42.7584V32.92H41.1984ZM42.7584 37.28H46.6184V40.44H42.7584V37.28ZM43.8384 47.8V49.16H56.1784V47.8H43.8384ZM43.8384 43.36V48.54H45.4984V43.36H43.8384ZM60.8969 41.22V42.56H73.3169V41.22H60.8969ZM58.7969 45.86V47.24H75.1769V45.86H58.7969ZM60.8969 33.02V41.64H62.5769V34.38H73.1169V33.02H60.8969ZM62.0369 37.06V38.38H72.7369V37.06H62.0369ZM95.1217 31.48V43.12H96.7817V31.48H95.1217ZM96.3217 36.5V37.88H99.4617V36.5H96.3217ZM91.1017 43.28C87.4617 43.28 85.2217 44.42 85.2217 46.4C85.2217 48.38 87.4617 49.52 91.1017 49.52C94.7617 49.52 96.9817 48.38 96.9817 46.4C96.9817 44.42 94.7617 43.28 91.1017 43.28ZM91.1017 44.56C93.7617 44.56 95.3617 45.24 95.3617 46.4C95.3617 47.58 93.7617 48.24 91.1017 48.24C88.4617 48.24 86.8617 47.58 86.8617 46.4C86.8617 45.24 88.4617 44.56 91.1017 44.56ZM82.8017 33.52V34.84H93.4817V33.52H82.8017ZM88.1417 35.76C85.5417 35.76 83.8017 37 83.8017 38.94C83.8017 40.9 85.5417 42.14 88.1417 42.14C90.7217 42.14 92.4617 40.9 92.4617 38.94C92.4617 37 90.7217 35.76 88.1417 35.76ZM88.1417 37.02C89.7617 37.02 90.8817 37.78 90.8817 38.94C90.8817 40.12 89.7617 40.88 88.1417 40.88C86.4817 40.88 85.3817 40.12 85.3817 38.94C85.3817 37.78 86.4817 37.02 88.1417 37.02ZM87.3017 31.32V34.26H88.9617V31.32H87.3017ZM103.24 32.22V38.38H115.4V32.22H103.24ZM113.76 33.56V37.04H104.86V33.56H113.76ZM101.14 40.64V41.98H117.48V40.64H101.14ZM108.5 38.02V41.14H110.14V38.02H108.5ZM102.96 43.84V45.2H113.8V49.56H115.46V43.84H102.96Z" fill="black" fill-opacity="0.5"/>
</g>
<defs>
<filter id="filter0_d_206_2201" x="0" y="0" width="350" height="90" filterUnits="userSpaceOnUse" color-interpolation-filters="sRGB">
<feFlood flood-opacity="0" result="BackgroundImageFix"/>
<feColorMatrix in="SourceAlpha" type="matrix" values="0 0 0 0 0 0 0 0 0 0 0 0 0 0 0 0 0 0 127 0" result="hardAlpha"/>
<feOffset dy="5"/>
<feGaussianBlur stdDeviation="2.5"/>
<feComposite in2="hardAlpha" operator="out"/>
<feColorMatrix type="matrix" values="0 0 0 0 0 0 0 0 0 0 0 0 0 0 0 0 0 0 0.25 0"/>
<feBlend mode="normal" in2="BackgroundImageFix" result="effect1_dropShadow_206_2201"/>
<feBlend mode="normal" in="SourceGraphic" in2="effect1_dropShadow_206_2201" result="shape"/>
</filter>
</defs>
</svg>
