<svg width="377" height="81" viewBox="0 0 377 81" fill="none" xmlns="http://www.w3.org/2000/svg">
<path fill-rule="evenodd" clip-rule="evenodd" d="M295.886 3.78857C293.647 7.43291 288.273 10 282 10V14C282.552 14 283 14.4477 283 15V25C283 25.5523 282.552 26 282 26V34C282.552 34 283 34.4477 283 35V45C283 45.5523 282.552 46 282 46V54C282.552 54 283 54.4477 283 55V65C283 65.5523 282.552 66 282 66V70C288.273 70 293.647 72.5671 295.886 76.2114C297.043 78.0936 298.791 80 301 80H373C375.209 80 377 78.2091 377 76V4C377 1.79086 375.209 0 373 0H301C298.791 0 297.043 1.90641 295.886 3.78857Z" fill="#8F8F8F"/>
<path fill-rule="evenodd" clip-rule="evenodd" d="M261.667 1H3.99999C1.79085 1 0 2.79086 0 5V77C0 79.2091 1.79086 81 4 81H261.667C263.876 81 265.639 79.0841 266.859 77.2426C269.285 73.5817 275.15 71 282 71L282 67H281.911C281.359 67 280.911 66.5523 280.911 66V56C280.911 55.4477 281.359 55 281.911 55H282V47H281.911C281.359 47 280.911 46.5523 280.911 46V36C280.911 35.4477 281.359 35 281.911 35H282V27H281.911C281.359 27 280.911 26.5523 280.911 26V16C280.911 15.4477 281.359 15 281.911 15H282L282 11C275.15 11 269.285 8.41825 266.859 4.75737C265.639 2.91587 263.876 1 261.667 1Z" fill="#DFDFDF"/>
</svg>
