<svg width="377" height="80" viewBox="0 0 377 80" fill="none" xmlns="http://www.w3.org/2000/svg">
<path fill-rule="evenodd" clip-rule="evenodd" d="M295.886 3.78857C293.647 7.43291 288.273 10 282 10V14C282.552 14 283 14.4477 283 15V25C283 25.5523 282.552 26 282 26V34C282.552 34 283 34.4477 283 35V45C283 45.5523 282.552 46 282 46V54C282.552 54 283 54.4477 283 55V65C283 65.5523 282.552 66 282 66V70C288.273 70 293.647 72.5671 295.886 76.2114C297.043 78.0936 298.791 80 301 80H373C375.209 80 377 78.2091 377 76V4C377 1.79086 375.209 0 373 0H301C298.791 0 297.043 1.90641 295.886 3.78857Z" fill="#EE795F"/>
<path fill-rule="evenodd" clip-rule="evenodd" d="M261.667 0H3.99999C1.79085 0 0 1.79086 0 4V76C0 78.2091 1.79086 80 4 80H261.667C263.876 80 265.639 78.0841 266.859 76.2426C269.285 72.5817 275.15 70 282 70L282 66H281.911C281.359 66 280.911 65.5523 280.911 65V55C280.911 54.4477 281.359 54 281.911 54H282V46H281.911C281.359 46 280.911 45.5523 280.911 45V35C280.911 34.4477 281.359 34 281.911 34H282V26H281.911C281.359 26 280.911 25.5523 280.911 25V15C280.911 14.4477 281.359 14 281.911 14H282L282 10C275.15 10 269.285 7.41825 266.859 3.75737C265.639 1.91587 263.876 0 261.667 0Z" fill="white"/>
</svg>
