<svg width="62" height="71" viewBox="0 0 62 71" fill="none" xmlns="http://www.w3.org/2000/svg">
<path d="M15.3158 17.7747C15.3158 13.7415 17.5306 10.2551 20.7845 8.35474V34.2747C20.7845 34.8269 21.2323 35.2747 21.7845 35.2747H26.347C26.8993 35.2747 27.347 34.8269 27.347 34.2747V6.83716H33.9095V34.2747C33.9095 34.8269 34.3573 35.2747 34.9095 35.2747H39.472C40.0243 35.2747 40.472 34.8269 40.472 34.2747V8.35474C43.726 10.2551 45.9408 13.7415 45.9408 17.7747V34.2747C45.9408 34.8269 46.3885 35.2747 46.9408 35.2747H51.5033C52.0556 35.2747 52.5033 34.8269 52.5033 34.2747V17.7747C52.5033 8.10864 44.6693 0.274658 35.0033 0.274658H26.2533C16.5873 0.274658 8.7533 8.10864 8.7533 17.7747V34.2747C8.7533 34.8269 9.20102 35.2747 9.7533 35.2747H14.3158C14.8681 35.2747 15.3158 34.8269 15.3158 34.2747V17.7747ZM61.0209 47.0188L59.558 42.6438C58.9564 40.8528 57.2885 39.6497 55.4017 39.6497H5.84119C3.95447 39.6497 2.2865 40.8528 1.68494 42.6438L0.222051 47.0188C-0.707637 49.8489 1.39783 52.7747 4.3783 52.7747V68.0872C4.3783 69.2903 5.36268 70.2747 6.5658 70.2747H10.9408C12.1439 70.2747 13.1283 69.2903 13.1283 68.0872V52.7747H48.1283V68.0872C48.1283 69.2903 49.1127 70.2747 50.3158 70.2747H54.6908C55.8939 70.2747 56.8783 69.2903 56.8783 68.0872V52.7747C59.8588 52.7747 61.9642 49.8489 61.0209 47.0188Z" fill="#F9B7A9"/>
</svg>
