<svg width="50" height="50" viewBox="0 0 50 50" fill="none" xmlns="http://www.w3.org/2000/svg">
<path d="M25 50C20.0555 50 15.222 48.5338 11.1108 45.7867C6.99952 43.0397 3.79521 39.1352 1.90302 34.5671C0.0108321 29.9989 -0.484251 24.9723 0.480379 20.1228C1.44501 15.2732 3.82603 10.8187 7.32234 7.32234C10.8187 3.82603 15.2732 1.44501 20.1228 0.480379C24.9723 -0.484251 29.9989 0.0108321 34.5671 1.90302C39.1352 3.79521 43.0397 6.99952 45.7867 11.1108C48.5338 15.222 50 20.0555 50 25C50 31.6304 47.3661 37.9893 42.6777 42.6777C37.9893 47.3661 31.6304 50 25 50ZM25 3.57144C20.7618 3.57144 16.6188 4.8282 13.0949 7.1828C9.57102 9.53741 6.82447 12.8841 5.20259 16.7996C3.58071 20.7152 3.15636 25.0238 3.98318 29.1805C4.81001 33.3372 6.85088 37.1554 9.84772 40.1523C12.8446 43.1491 16.6628 45.19 20.8195 46.0168C24.9762 46.8437 29.2848 46.4193 33.2004 44.7974C37.1159 43.1755 40.4626 40.429 42.8172 36.9051C45.1718 33.3812 46.4286 29.2382 46.4286 25C46.4286 19.3168 44.1709 13.8664 40.1523 9.84772C36.1337 5.82908 30.6832 3.57144 25 3.57144Z" fill="#425C5A"/>
<path d="M25 13L28.8206 20.7414L37.3637 21.9828L31.1819 28.0086L32.6412 36.5172L25 32.5L17.3588 36.5172L18.8181 28.0086L12.6363 21.9828L21.1794 20.7414L25 13Z" stroke="#425C5A" stroke-width="3" stroke-linejoin="round"/>
</svg>
