<svg width="59" height="66" viewBox="0 0 59 66" fill="none" xmlns="http://www.w3.org/2000/svg">
<g filter="url(#filter0_d_741_4963)">
<ellipse cx="30" cy="30.5" rx="23" ry="23.5" fill="#FFCEA2"/>
<path fill-rule="evenodd" clip-rule="evenodd" d="M55 11.1902L29.6977 0L4 11.1902L4 28.9402L4 46.6902L29.3023 57.8804L55 46.6902V28.9402V11.1902ZM34.0598 23.6764C36.1044 22.2886 37.4442 19.9682 37.4442 17.34C37.4442 13.0911 33.9424 9.64673 29.6226 9.64673C25.3028 9.64673 21.801 13.0911 21.801 17.34C21.801 19.9682 23.1409 22.2886 25.1854 23.6764C25.1346 23.8754 25.0921 24.1592 25.0304 24.5709L25.0304 24.5709C24.4788 28.2538 21.6582 33.5267 13.3689 34.4508C12.8016 34.514 12.518 34.5457 12.3306 34.6584C12.1503 34.7669 12.0253 34.9066 11.9375 35.0978C11.8462 35.2966 11.8462 35.5609 11.8462 36.0896L11.8462 39.0211H47.399V41.1192H11.8462L11.8462 41.6274C11.8462 42.178 11.8462 42.4534 11.9516 42.6644C12.0484 42.8581 12.2055 43.0152 12.3992 43.112C12.6102 43.2174 12.8855 43.2174 13.4362 43.2174H27.6474H31.5978H45.809C46.3597 43.2174 46.635 43.2174 46.846 43.112C47.0397 43.0152 47.1968 42.8581 47.2936 42.6644C47.399 42.4534 47.399 42.178 47.399 41.6274V36.0896C47.399 35.5609 47.399 35.2966 47.3078 35.0978C47.2199 34.9066 47.0949 34.7669 46.9146 34.6584C46.7272 34.5457 46.4436 34.514 45.8763 34.4508C37.587 33.5267 34.7664 28.2538 34.2148 24.5709C34.1531 24.1592 34.1106 23.8754 34.0598 23.6764Z" fill="#EE795F"/>
</g>
<defs>
<filter id="filter0_d_741_4963" x="0" y="0" width="59" height="65.8805" filterUnits="userSpaceOnUse" color-interpolation-filters="sRGB">
<feFlood flood-opacity="0" result="BackgroundImageFix"/>
<feColorMatrix in="SourceAlpha" type="matrix" values="0 0 0 0 0 0 0 0 0 0 0 0 0 0 0 0 0 0 127 0" result="hardAlpha"/>
<feOffset dy="4"/>
<feGaussianBlur stdDeviation="2"/>
<feComposite in2="hardAlpha" operator="out"/>
<feColorMatrix type="matrix" values="0 0 0 0 0 0 0 0 0 0 0 0 0 0 0 0 0 0 0.25 0"/>
<feBlend mode="normal" in2="BackgroundImageFix" result="effect1_dropShadow_741_4963"/>
<feBlend mode="normal" in="SourceGraphic" in2="effect1_dropShadow_741_4963" result="shape"/>
</filter>
</defs>
</svg>
