<svg width="49" height="70" viewBox="0 0 49 70" fill="none" xmlns="http://www.w3.org/2000/svg">
<path d="M24.5 35C21.7152 35 19.0445 36.1062 17.0754 38.0754C15.1062 40.0445 14 42.7152 14 45.5C14 48.2848 15.1062 50.9555 17.0754 52.9246C19.0445 54.8938 21.7152 56 24.5 56C27.2848 56 29.9555 54.8938 31.9246 52.9246C33.8938 50.9555 35 48.2848 35 45.5C35 42.7152 33.8938 40.0445 31.9246 38.0754C29.9555 36.1062 27.2848 35 24.5 35ZM24.5 63C19.8587 63 15.4075 61.1563 12.1256 57.8744C8.84374 54.5925 7 50.1413 7 45.5C7 40.8587 8.84374 36.4075 12.1256 33.1256C15.4075 29.8437 19.8587 28 24.5 28C29.1413 28 33.5925 29.8437 36.8744 33.1256C40.1563 36.4075 42 40.8587 42 45.5C42 50.1413 40.1563 54.5925 36.8744 57.8744C33.5925 61.1563 29.1413 63 24.5 63ZM24.5 7C26.3565 7 28.137 7.7375 29.4497 9.05025C30.7625 10.363 31.5 12.1435 31.5 14C31.5 15.8565 30.7625 17.637 29.4497 18.9497C28.137 20.2625 26.3565 21 24.5 21C20.615 21 17.5 17.85 17.5 14C17.5 10.115 20.615 7 24.5 7ZM42 0H7C3.115 0 0 3.115 0 7V63C0 64.8565 0.737498 66.637 2.05025 67.9497C3.36301 69.2625 5.14348 70 7 70H42C43.8565 70 45.637 69.2625 46.9497 67.9497C48.2625 66.637 49 64.8565 49 63V7C49 3.115 45.85 0 42 0Z" fill="#F9B7A9"/>
</svg>
