<svg width="70" height="58" viewBox="0 0 70 58" fill="none" xmlns="http://www.w3.org/2000/svg">
<path fill-rule="evenodd" clip-rule="evenodd" d="M58.6112 25.2498C57.4064 26.4668 55.7387 27.2222 53.8889 27.2222C52.039 27.2222 50.3714 26.4668 49.1666 25.2498C47.9621 26.4668 46.2943 27.2222 44.4444 27.2222C42.5946 27.2222 40.9269 26.4668 39.7223 25.2498C38.5175 26.4668 36.8499 27.2222 35 27.2222C33.1501 27.2222 31.4825 26.4668 30.2777 25.2498C29.0731 26.4668 27.4054 27.2222 25.5556 27.2222C23.7057 27.2222 22.0379 26.4668 20.8334 25.2498C19.6286 26.4668 17.961 27.2222 16.1111 27.2222C14.2613 27.2222 12.5936 26.4668 11.3888 25.2498C10.4349 26.2136 9.19046 26.8879 7.79519 27.1267V53.6338H61.7471V27.0316C60.5376 26.735 59.4595 26.1069 58.6112 25.2498ZM65.7471 26.7697V55.6338C65.7471 56.7384 64.8517 57.6338 63.7471 57.6338H5.79519C4.69062 57.6338 3.79519 56.7384 3.79519 55.6338V26.5706C1.54569 25.4891 0 23.1769 0 20.5158V15.8684C0 15.2518 0.107488 14.6397 0.317819 14.0599L4.55706 2.37531C5.07167 0.956861 6.4169 0 7.93703 0H62.063C63.5831 0 64.9283 0.956861 65.443 2.37533L69.6823 14.0599C69.8925 14.6397 70 15.2518 70 15.8684V20.5158C70 23.3538 68.242 25.7949 65.7471 26.7697Z" fill="#F9B7A9"/>
</svg>
