<svg width="70" height="64" viewBox="0 0 70 64" fill="none" xmlns="http://www.w3.org/2000/svg">
<path d="M35.8944 0.447213C35.3314 0.165685 34.6686 0.165686 34.1056 0.447214L1.10557 16.9472C0.428004 17.286 0 17.9785 0 18.7361V22.8397C0 23.5891 0.423428 24.2742 1.09375 24.6094C1.76407 24.9445 2.1875 25.6297 2.1875 26.3791V47.0312C2.1875 48.8435 3.65654 50.3125 5.46875 50.3125H7.65625C9.46846 50.3125 10.9375 48.8435 10.9375 47.0312V32.7673C10.9375 31.2806 12.5021 30.3136 13.8319 30.9785L29.5194 38.8222C30.197 39.161 30.625 39.8535 30.625 40.6111V60.1562C30.625 61.9685 32.094 63.4375 33.9062 63.4375H36.0938C37.906 63.4375 39.375 61.9685 39.375 60.1562V40.6111C39.375 39.8535 39.803 39.161 40.4806 38.8222L56.1681 30.9785C57.4979 30.3136 59.0625 31.2806 59.0625 32.7673V47.0312C59.0625 48.8435 60.5315 50.3125 62.3438 50.3125H64.5312C66.3435 50.3125 67.8125 48.8435 67.8125 47.0312V26.3791C67.8125 25.6297 68.2359 24.9445 68.9062 24.6094C69.5766 24.2742 70 23.5891 70 22.8397V18.7361C70 17.9785 69.572 17.286 68.8944 16.9472L35.8944 0.447213ZM34.1056 5.3386C34.6686 5.05707 35.3314 5.05707 35.8944 5.3386L57.9118 16.3473C59.4031 17.0929 59.3809 19.2287 57.8744 19.9432L35.8571 30.3857C35.3146 30.643 34.6854 30.643 34.1429 30.3857L12.1256 19.9432C10.6191 19.2287 10.5969 17.0929 12.0882 16.3473L34.1056 5.3386Z" fill="#F9B7A9"/>
</svg>
