<svg width="28" height="40" viewBox="0 0 28 40" fill="none" xmlns="http://www.w3.org/2000/svg">
<path d="M14 20C12.4087 20 10.8826 20.6321 9.75736 21.7574C8.63214 22.8826 8 24.4087 8 26C8 27.5913 8.63214 29.1174 9.75736 30.2426C10.8826 31.3679 12.4087 32 14 32C15.5913 32 17.1174 31.3679 18.2426 30.2426C19.3679 29.1174 20 27.5913 20 26C20 24.4087 19.3679 22.8826 18.2426 21.7574C17.1174 20.6321 15.5913 20 14 20ZM14 36C11.3478 36 8.8043 34.9464 6.92893 33.0711C5.05357 31.1957 4 28.6522 4 26C4 23.3478 5.05357 20.8043 6.92893 18.9289C8.8043 17.0536 11.3478 16 14 16C16.6522 16 19.1957 17.0536 21.0711 18.9289C22.9464 20.8043 24 23.3478 24 26C24 28.6522 22.9464 31.1957 21.0711 33.0711C19.1957 34.9464 16.6522 36 14 36ZM14 4C15.0609 4 16.0783 4.42143 16.8284 5.17157C17.5786 5.92172 18 6.93913 18 8C18 9.06087 17.5786 10.0783 16.8284 10.8284C16.0783 11.5786 15.0609 12 14 12C11.78 12 10 10.2 10 8C10 5.78 11.78 4 14 4ZM24 0H4C1.78 0 0 1.78 0 4V36C0 37.0609 0.421427 38.0783 1.17157 38.8284C1.92172 39.5786 2.93913 40 4 40H24C25.0609 40 26.0783 39.5786 26.8284 38.8284C27.5786 38.0783 28 37.0609 28 36V4C28 1.78 26.2 0 24 0Z" fill="#425C5A"/>
</svg>
