<svg width="50" height="47" viewBox="0 0 50 47" fill="none" xmlns="http://www.w3.org/2000/svg">
<path d="M7.14285 42.8571C9.11529 42.8571 10.7143 41.2581 10.7143 39.2857C10.7143 37.3132 9.11529 35.7142 7.14285 35.7142C5.1704 35.7142 3.57142 37.3132 3.57142 39.2857C3.57142 41.2581 5.1704 42.8571 7.14285 42.8571Z" fill="#425C5A"/>
<path d="M46.4286 25H41.0714V21.4285C41.0703 20.4817 40.6937 19.5739 40.0242 18.9044C39.3546 18.2348 38.4469 17.8582 37.5 17.8571H30.3571C29.4103 17.8582 28.5025 18.2348 27.833 18.9044C27.1634 19.5739 26.7868 20.4817 26.7857 21.4285V25H21.4286C20.4817 25.0011 19.5739 25.3777 18.9044 26.0472C18.2348 26.7168 17.8582 27.6245 17.8571 28.5714V42.8571C17.8582 43.804 18.2348 44.7118 18.9044 45.3813C19.5739 46.0508 20.4817 46.4275 21.4286 46.4286H46.4286C47.3754 46.4275 48.2832 46.0508 48.9528 45.3813C49.6223 44.7118 49.9989 43.804 50 42.8571V28.5714C49.9989 27.6245 49.6223 26.7168 48.9528 26.0472C48.2832 25.3777 47.3754 25.0011 46.4286 25ZM30.3571 21.4285H37.5V25H30.3571V21.4285ZM46.4286 42.8571H21.4286V28.5714H46.4286V42.8571Z" fill="#425C5A"/>
<path d="M14.2857 3.57143H21.4286V14.2857H25V3.57143H32.1429V14.2857H35.7143V3.57143H42.8572V14.2857H46.4286V3.58018C46.4286 3.11001 46.3361 2.64444 46.1562 2.21005C45.9763 1.77566 45.7125 1.38097 45.3801 1.04851C45.0476 0.716046 44.6529 0.452333 44.2185 0.272429C43.7842 0.0925249 43.3186 -4.68912e-05 42.8484 1.78188e-08H3.58018C3.11001 -4.68912e-05 2.64444 0.0925249 2.21005 0.272429C1.77566 0.452333 1.38097 0.716046 1.04851 1.04851C0.716046 1.38097 0.452334 1.77566 0.27243 2.21005C0.0925253 2.64444 -4.68378e-05 3.11001 7.12712e-08 3.58018V28.5623C-9.37504e-05 29.0325 0.0924437 29.4981 0.272327 29.9326C0.45221 30.367 0.715915 30.7617 1.04838 31.0942C1.38084 31.4267 1.77555 31.6905 2.20997 31.8704C2.64438 32.0503 3.10998 32.1429 3.58018 32.1429H14.2857V3.57143ZM10.7143 28.5714H3.57143V3.57143H10.7143V28.5714Z" fill="#425C5A"/>
</svg>
