<svg width="74" height="63" viewBox="0 0 74 63" fill="none" xmlns="http://www.w3.org/2000/svg">
    <path
        d="M2 10.7424H34.7419V2.27466H51.1129V7.91982H57.8871V14.694H51.1129V19.2101H34.7419V10.7424H2V31.6295H72V52.5166H34.7419V60.9843H17.8065V55.9037H10.4677V49.1295H17.8065V44.6134H34.7419V52.5166H72V31.6295H2V10.7424Z"
        fill="#F9B7A9" />
    <path
        d="M34.7419 10.7424H2V31.6295H72V52.5166H34.7419M34.7419 10.7424V19.2101H51.1129V14.694M34.7419 10.7424V2.27466H51.1129V7.91982M34.7419 52.5166V60.9843H17.8065V55.9037M34.7419 52.5166V44.6134H17.8065V49.1295M51.1129 7.91982H57.8871V14.694H51.1129M51.1129 7.91982V14.694M17.8065 49.1295H10.4677V55.9037H17.8065M17.8065 49.1295V55.9037"
        stroke="#F9B7A9" stroke-width="4" stroke-linejoin="round" />
</svg>
