<svg width="35" height="40" viewBox="0 0 35 40" fill="none" xmlns="http://www.w3.org/2000/svg">
<path d="M8.75189 10C8.75189 7.69531 10.0175 5.70312 11.8769 4.61719V19C11.8769 19.5523 12.3246 20 12.8769 20H14.6269C15.1792 20 15.6269 19.5523 15.6269 19V3.75H19.3769V19C19.3769 19.5523 19.8246 20 20.3769 20H22.1269C22.6792 20 23.1269 19.5523 23.1269 19V4.61719C24.9863 5.70312 26.2519 7.69531 26.2519 10V19C26.2519 19.5523 26.6996 20 27.2519 20H29.0019C29.5542 20 30.0019 19.5523 30.0019 19V10C30.0019 4.47656 25.5253 0 20.0019 0H15.0019C9.47845 0 5.00189 4.47656 5.00189 10V19C5.00189 19.5523 5.4496 20 6.00189 20H7.75189C8.30417 20 8.75189 19.5523 8.75189 19V10ZM34.8691 26.7109L34.0331 24.2109C33.6894 23.1875 32.7363 22.5 31.6581 22.5H3.33782C2.2597 22.5 1.30657 23.1875 0.962824 24.2109L0.126886 26.7109C-0.404364 28.3281 0.798761 30 2.50189 30V38.75C2.50189 39.4375 3.06439 40 3.75189 40H6.25189C6.93939 40 7.50189 39.4375 7.50189 38.75V30H27.5019V38.75C27.5019 39.4375 28.0644 40 28.7519 40H31.2519C31.9394 40 32.5019 39.4375 32.5019 38.75V30C34.205 30 35.4081 28.3281 34.8691 26.7109Z" fill="#425C5A"/>
</svg>
