<svg width="44" height="38" viewBox="0 0 44 38" fill="none" xmlns="http://www.w3.org/2000/svg">
<path d="M2 6.90385H20.7097V2H30.0645V5.26923H33.9355V9.19231H30.0645V11.8077H20.7097V6.90385H2V19H42V31.0962H20.7097V36H11.0323V33.0577H6.83871V29.1346H11.0323V26.5192H20.7097V31.0962H42V19H2V6.90385Z" fill="#425C5A"/>
<path d="M20.7097 6.90385H2V19H42V31.0962H20.7097M20.7097 6.90385V11.8077H30.0645V9.19231M20.7097 6.90385V2H30.0645V5.26923M20.7097 31.0962V36H11.0323V33.0577M20.7097 31.0962V26.5192H11.0323V29.1346M30.0645 5.26923H33.9355V9.19231H30.0645M30.0645 5.26923V9.19231M11.0323 29.1346H6.83871V33.0577H11.0323M11.0323 29.1346V33.0577" stroke="#425C5A" stroke-width="4" stroke-linejoin="round"/>
</svg>
