<svg width="40" height="37" viewBox="0 0 40 37" fill="none" xmlns="http://www.w3.org/2000/svg">
<path d="M20.8944 0.447214C20.3314 0.165687 19.6686 0.165686 19.1056 0.447214L1.10557 9.44721C0.428006 9.786 0 10.4785 0 11.2361V13.0512C0 13.4795 0.241959 13.871 0.625 14.0625C1.00804 14.254 1.25 14.6455 1.25 15.0738V26.875C1.25 27.9105 2.08945 28.75 3.125 28.75H4.375C5.41055 28.75 6.25 27.9105 6.25 26.875V20.1111C6.25 18.6243 7.81463 17.6573 9.14443 18.3222L16.3944 21.9472C17.072 22.286 17.5 22.9785 17.5 23.7361V34.375C17.5 35.4105 18.3395 36.25 19.375 36.25H20.625C21.6605 36.25 22.5 35.4105 22.5 34.375V23.7361C22.5 22.9785 22.928 22.286 23.6056 21.9472L30.8556 18.3222C32.1854 17.6573 33.75 18.6243 33.75 20.1111V26.875C33.75 27.9105 34.5895 28.75 35.625 28.75H36.875C37.9105 28.75 38.75 27.9105 38.75 26.875V15.0738C38.75 14.6455 38.992 14.254 39.375 14.0625C39.758 13.871 40 13.4795 40 13.0512V11.2361C40 10.4785 39.572 9.786 38.8944 9.44721L20.8944 0.447214ZM19.1056 3.24229C19.6686 2.96076 20.3314 2.96076 20.8944 3.24229L31.5185 8.55431C33.0097 9.29995 32.9876 11.4357 31.4811 12.1502L20.8571 17.1891C20.3146 17.4463 19.6854 17.4463 19.1429 17.1891L8.5189 12.1502C7.01245 11.4357 6.99025 9.29995 8.48153 8.55431L19.1056 3.24229Z" fill="#425C5A"/>
</svg>
