<svg width="33" height="30" viewBox="0 0 33 30" fill="none" xmlns="http://www.w3.org/2000/svg">
<path d="M6.42883 23.2703C2.44966 20.8745 0 17.0984 0 12.9331C0 5.69485 7.30591 0 16.1567 0C25.0075 0 32.3134 5.69485 32.3134 12.9331C32.3134 20.1713 25.0075 25.8661 16.1567 25.8661C15.4766 25.8661 14.7995 25.8323 14.1287 25.7661L8.33532 29.5483C7.389 30.0499 6.86275 30.2023 6.0503 29.6499C5.09629 28.9974 5.13322 28.2773 5.46404 27.2494L6.42883 23.2703ZM3.07747 12.9331C3.07747 16.2136 5.25939 19.2773 8.89542 21.1191L9.98177 21.6715L9.69556 22.8563L9.07853 25.3922L13.387 22.5763L13.9502 22.6471C14.678 22.7409 15.415 22.7886 16.1567 22.7886C23.4518 22.7886 29.2359 18.2802 29.2359 12.9331C29.2359 7.58596 23.4518 3.07747 16.1567 3.07747C8.86157 3.07747 3.07747 7.58596 3.07747 12.9331Z" fill="#425C5A"/>
<path d="M24.665 13.0491L26.8232 15.9376C26.874 16.0056 26.9101 16.0824 26.9294 16.1635C26.9486 16.2447 26.9507 16.3286 26.9355 16.4105C26.9203 16.4924 26.888 16.5706 26.8406 16.6408C26.7932 16.711 26.7316 16.7717 26.6593 16.8195C26.5869 16.8673 26.5053 16.9012 26.419 16.9194C26.3327 16.9375 26.2434 16.9394 26.1563 16.9251C26.0692 16.9108 25.986 16.8805 25.9113 16.8359C25.8367 16.7914 25.7721 16.7334 25.7213 16.6654L23.6857 13.9404L23.077 14.494V16.3209C23.077 16.4887 23.0061 16.6496 22.8799 16.7683C22.7538 16.8869 22.5826 16.9536 22.4042 16.9536C22.2257 16.9536 22.0546 16.8869 21.9284 16.7683C21.8022 16.6496 21.7314 16.4887 21.7314 16.3209V14.3921C21.7061 14.2944 21.7061 14.1923 21.7314 14.0946V10.6672C21.7314 10.4994 21.8022 10.3385 21.9284 10.2199C22.0546 10.1012 22.2257 10.0346 22.4042 10.0346C22.5826 10.0346 22.7538 10.1012 22.8799 10.2199C23.0061 10.3385 23.077 10.4994 23.077 10.6672V12.7341L25.8254 10.233C25.9548 10.1232 26.1246 10.065 26.2988 10.0706C26.473 10.0762 26.6381 10.1452 26.7593 10.263C26.8806 10.3808 26.9484 10.5382 26.9486 10.7021C26.9488 10.8661 26.8814 11.0237 26.7605 11.1417L24.665 13.0491ZM20.4484 15.6293C20.6269 15.6293 20.798 15.6959 20.9242 15.8146C21.0504 15.9332 21.1213 16.0941 21.1213 16.2619C21.1213 16.4297 21.0504 16.5906 20.9242 16.7093C20.798 16.8279 20.6269 16.8946 20.4484 16.8946H17.6944C17.5162 16.8942 17.3454 16.8274 17.2195 16.7088C17.0937 16.5902 17.023 16.4295 17.023 16.2619V10.6873C17.0188 10.6019 17.0331 10.5166 17.065 10.4364C17.0969 10.3563 17.1457 10.2831 17.2085 10.2213C17.2713 10.1594 17.3469 10.1102 17.4305 10.0766C17.5141 10.0429 17.6041 10.0256 17.6951 10.0256C17.7861 10.0256 17.8761 10.0429 17.9597 10.0766C18.0434 10.1102 18.1189 10.1594 18.1817 10.2213C18.2445 10.2831 18.2933 10.3563 18.3252 10.4364C18.3571 10.5166 18.3714 10.6019 18.3672 10.6873V15.6293H20.4484ZM12.0994 14.1656H14.001L13.0915 11.8776L12.0994 14.1656ZM15.6959 14.8197L16.1877 16.0595C16.2216 16.1379 16.2385 16.222 16.2373 16.3066C16.2361 16.3913 16.2169 16.4748 16.1807 16.5523C16.1446 16.6299 16.0922 16.6998 16.0268 16.7579C15.9614 16.8161 15.8842 16.8613 15.7999 16.8909C15.7155 16.9205 15.6257 16.9339 15.5358 16.9303C15.4458 16.9267 15.3575 16.9061 15.2762 16.8698C15.1949 16.8336 15.1221 16.7823 15.0622 16.7191C15.0023 16.6559 14.9565 16.582 14.9275 16.5019L14.5027 15.4309H11.552L11.0801 16.5206C11.0467 16.5975 10.9975 16.6675 10.9354 16.7266C10.8732 16.7856 10.7992 16.8326 10.7178 16.8647C10.6363 16.8969 10.5489 16.9137 10.4605 16.9141C10.3722 16.9145 10.2846 16.8985 10.2028 16.8671C10.121 16.8357 10.0465 16.7894 9.98374 16.731C9.92095 16.6725 9.87102 16.603 9.8368 16.5264C9.80259 16.4498 9.78475 16.3676 9.78432 16.2845C9.78388 16.2014 9.80086 16.119 9.83427 16.0421L12.2006 10.5801C12.2728 10.403 12.4006 10.2507 12.5672 10.1437C12.7338 10.0366 12.9311 9.97987 13.1328 9.98097C13.3329 9.98875 13.5256 10.0537 13.6853 10.1673C13.8451 10.2808 13.9641 10.4375 14.0266 10.6163L15.5177 14.3693C15.6337 14.4856 15.6984 14.6389 15.6987 14.7983L15.6959 14.8197ZM10.9604 10.694C10.9604 11.0425 10.6611 11.3267 10.289 11.3267H8.66395V16.3343C8.66395 16.5023 8.59299 16.6634 8.46667 16.7821C8.34036 16.9009 8.16904 16.9676 7.99041 16.9676C7.81177 16.9676 7.64046 16.9009 7.51414 16.7821C7.38783 16.6634 7.31687 16.5023 7.31687 16.3343V11.3267H5.66331C5.57495 11.3267 5.48746 11.3103 5.40583 11.2785C5.32419 11.2467 5.25002 11.2001 5.18755 11.1414C5.12507 11.0827 5.07551 11.0129 5.04169 10.9362C5.00788 10.8594 4.99048 10.7771 4.99048 10.694C4.99048 10.611 5.00788 10.5287 5.04169 10.4519C5.07551 10.3752 5.12507 10.3054 5.18755 10.2467C5.25002 10.1879 5.32419 10.1413 5.40583 10.1096C5.48746 10.0778 5.57495 10.0614 5.66331 10.0614H10.289C10.6596 10.0614 10.9604 10.3442 10.9604 10.694Z" fill="#425C5A"/>
</svg>
