<svg width="51" height="44" viewBox="0 0 51 44" fill="none" xmlns="http://www.w3.org/2000/svg">
<path d="M39 39.1304C39 39.9454 38.4389 40.6531 37.6453 40.8389L24.5687 43.9003C24.2881 43.966 23.9967 43.9703 23.7143 43.9128L11.1429 41.3565C11.1429 42.4323 10.2708 43.3043 9.19503 43.3043H2C0.895431 43.3043 0 42.4089 0 41.3043V30C0 28.8954 0.895431 28 2 28H14.5844C14.7654 28 14.9455 28.0246 15.1199 28.073L26.3714 31.2C28.2286 31.7565 29.7143 33.287 29.7143 34.9565H33.4286C36.5857 34.9565 39 36.7652 39 39.1304ZM7.42857 40.5217V30.7826H3.71429V40.5217H7.42857ZM35.1 38.5739C34.7286 38.0174 34.1714 37.7391 33.4286 37.7391H23.4C22.4714 37.7391 21.3571 37.6 20.4286 37.4609L17.7514 36.7632C16.9106 36.5442 16.4596 35.6304 16.7971 34.8297C17.0701 34.182 17.7744 33.8299 18.4563 34.0002L21.7286 34.8174C22.2857 34.8174 26 34.9565 26 34.9565C26 34.4 25.6286 33.9826 24.8857 33.8435L14.1143 30.7826H11.1429V38.4348L24.1429 41.0783L35.1 38.5739Z" fill="#425C5A"/>
<path fill-rule="evenodd" clip-rule="evenodd" d="M37.6667 10.75H45.6667C47.0807 10.7516 48.4363 11.3185 49.4361 12.3261C50.436 13.3338 50.9984 14.7 51 16.125V37.625C50.9984 39.05 50.436 40.4162 49.4361 41.4239C48.4363 42.4315 47.0807 42.9984 45.6667 43H42C40.8954 43 40 42.1046 40 41C40 39.8954 40.8954 39 42 39H47V14.5H7V24C7 25.1046 6.10457 26 5 26C3.89543 26 3 25.1046 3 24V16.125C3.00162 14.7 3.56405 13.3338 4.56389 12.3261C5.56373 11.3185 6.91934 10.7516 8.33333 10.75H16.3333V5.375C16.335 3.94996 16.8974 2.58376 17.8972 1.57611C18.8971 0.568455 20.2527 0.00163597 21.6667 0H32.3333C33.7473 0.00163597 35.1029 0.568455 36.1028 1.57611C37.1026 2.58376 37.665 3.94996 37.6667 5.375V10.75ZM33 4H21V10.75H33V4Z" fill="#425C5A"/>
</svg>
