<svg width="50" height="44" viewBox="0 0 50 44" fill="none" xmlns="http://www.w3.org/2000/svg">
<path d="M7.14288 21.4286H17.8572V25H7.14288V21.4286Z" fill="#425C5A"/>
<path d="M7.14288 14.2857H25V17.8571H7.14288V14.2857Z" fill="#425C5A"/>
<path d="M7.14288 7.14282H25V10.7143H7.14288V7.14282Z" fill="#425C5A"/>
<path d="M21.4286 39.2857H3.57143V3.57143H46.4286V21.4286H50V3.57143C50 2.62423 49.6237 1.71582 48.954 1.04605C48.2842 0.376274 47.3758 0 46.4286 0H3.57143C2.62423 0 1.71582 0.376274 1.04605 1.04605C0.376274 1.71582 0 2.62423 0 3.57143V39.2857C0 40.2329 0.376274 41.1413 1.04605 41.8111C1.71582 42.4809 2.62423 42.8571 3.57143 42.8571H21.4286V39.2857Z" fill="#425C5A"/>
<path d="M35.7143 38.5536L31.0893 33.9286L28.5714 36.4465L35.7143 43.5893L50 29.3036L47.4821 26.7858L35.7143 38.5536Z" fill="#425C5A"/>
</svg>
