<svg width="35" height="26" viewBox="0 0 35 26" fill="none" xmlns="http://www.w3.org/2000/svg">
<path d="M35 12.582C35 12.4961 35 12.3984 34.9961 12.2852C34.9922 11.9688 34.9844 11.6133 34.9766 11.2344C34.9453 10.1445 34.8906 9.05859 34.8047 8.03516C34.6875 6.625 34.5156 5.44922 34.2812 4.56641C34.0339 3.64512 33.5491 2.80488 32.8753 2.12967C32.2014 1.45447 31.3622 0.967953 30.4414 0.71875C29.3359 0.421875 27.1719 0.238281 24.125 0.125C22.6758 0.0703124 21.125 0.035156 19.5742 0.0156248C19.0312 0.00781226 18.5273 0.00390625 18.0742 0H16.9258C16.4727 0.00390625 15.9688 0.00781226 15.4258 0.0156248C13.875 0.035156 12.3242 0.0703124 10.875 0.125C7.82813 0.242187 5.66016 0.425781 4.55859 0.71875C3.6375 0.967342 2.79793 1.45365 2.124 2.12895C1.45007 2.80425 0.965469 3.64481 0.71875 4.56641C0.480469 5.44922 0.3125 6.625 0.195312 8.03516C0.109375 9.05859 0.0546874 10.1445 0.0234374 11.2344C0.0117187 11.6133 0.00781244 11.9688 0.00390619 12.2852C0.00390619 12.3984 0 12.4961 0 12.582V12.8008C0 12.8867 -5.98375e-08 12.9844 0.00390619 13.0977C0.00781244 13.4141 0.0156249 13.7695 0.0234374 14.1484C0.0546874 15.2383 0.109375 16.3242 0.195312 17.3477C0.3125 18.7578 0.484375 19.9336 0.71875 20.8164C1.21875 22.6875 2.6875 24.1641 4.55859 24.6641C5.66016 24.9609 7.82813 25.1445 10.875 25.2578C12.3242 25.3125 13.875 25.3477 15.4258 25.3672C15.9688 25.375 16.4727 25.3789 16.9258 25.3828H18.0742C18.5273 25.3789 19.0312 25.375 19.5742 25.3672C21.125 25.3477 22.6758 25.3125 24.125 25.2578C27.1719 25.1406 29.3398 24.957 30.4414 24.6641C32.3125 24.1641 33.7812 22.6914 34.2812 20.8164C34.5195 19.9336 34.6875 18.7578 34.8047 17.3477C34.8906 16.3242 34.9453 15.2383 34.9766 14.1484C34.9883 13.7695 34.9922 13.4141 34.9961 13.0977C34.9961 12.9844 35 12.8867 35 12.8008V12.582ZM32.1875 12.7852C32.1875 12.8672 32.1875 12.957 32.1836 13.0625C32.1797 13.3672 32.1719 13.7031 32.1641 14.0664C32.1367 15.1055 32.082 16.1445 32 17.1094C31.8945 18.3672 31.7461 19.3984 31.5625 20.0898C31.3203 20.9922 30.6094 21.707 29.7109 21.9453C28.8906 22.1641 26.8242 22.3398 24.0156 22.4453C22.5938 22.5 21.0625 22.5352 19.5352 22.5547C19 22.5625 18.5039 22.5664 18.0586 22.5664H16.9414L15.4648 22.5547C13.9375 22.5352 12.4102 22.5 10.9844 22.4453C8.17578 22.3359 6.10547 22.1641 5.28906 21.9453C4.39062 21.7031 3.67969 20.9922 3.4375 20.0898C3.25391 19.3984 3.10547 18.3672 3 17.1094C2.91797 16.1445 2.86719 15.1055 2.83594 14.0664C2.82422 13.7031 2.82031 13.3633 2.81641 13.0625C2.81641 12.957 2.8125 12.8633 2.8125 12.7852V12.5977C2.8125 12.5156 2.8125 12.4258 2.81641 12.3203C2.82031 12.0156 2.82813 11.6797 2.83594 11.3164C2.86328 10.2773 2.91797 9.23828 3 8.27344C3.10547 7.01562 3.25391 5.98438 3.4375 5.29297C3.67969 4.39062 4.39062 3.67578 5.28906 3.4375C6.10938 3.21875 8.17578 3.04297 10.9844 2.9375C12.4063 2.88281 13.9375 2.84766 15.4648 2.82812C16 2.82031 16.4961 2.81641 16.9414 2.81641H18.0586L19.5352 2.82812C21.0625 2.84766 22.5898 2.88281 24.0156 2.9375C26.8242 3.04687 28.8945 3.21875 29.7109 3.4375C30.6094 3.67969 31.3203 4.39062 31.5625 5.29297C31.7461 5.98438 31.8945 7.01562 32 8.27344C32.082 9.23828 32.1328 10.2773 32.1641 11.3164C32.1758 11.6797 32.1797 12.0195 32.1836 12.3203C32.1836 12.4258 32.1875 12.5195 32.1875 12.5977V12.7852ZM14.0234 16.1869C14.0234 16.9582 14.8597 17.4392 15.5264 17.0512L21.5895 13.5231C22.2547 13.136 22.2516 12.174 21.5839 11.7913L15.5208 8.31543C14.8541 7.93324 14.0234 8.41454 14.0234 9.18298V16.1869Z" fill="#425C5A"/>
</svg>
