<svg width="45" height="50" viewBox="0 0 45 50" fill="none" xmlns="http://www.w3.org/2000/svg">
<path d="M30.3571 50C27.5317 50 24.7697 49.1622 22.4204 47.5924C20.0712 46.0227 18.2401 43.7916 17.1589 41.1812C16.0776 38.5708 15.7947 35.6985 16.3459 32.9273C16.8972 30.1561 18.2577 27.6107 20.2556 25.6128C22.2535 23.6149 24.799 22.2543 27.5701 21.7031C30.3413 21.1519 33.2137 21.4348 35.8241 22.516C38.4344 23.5973 40.6655 25.4283 42.2353 27.7776C43.805 30.1269 44.6429 32.8889 44.6429 35.7143C44.6429 39.5031 43.1378 43.1367 40.4587 45.8158C37.7796 48.4949 34.146 50 30.3571 50ZM30.3571 25C28.2381 25 26.1666 25.6284 24.4046 26.8057C22.6427 27.983 21.2694 29.6563 20.4584 31.6141C19.6475 33.5719 19.4353 35.7262 19.8487 37.8046C20.2622 39.8829 21.2826 41.792 22.781 43.2904C24.2794 44.7889 26.1885 45.8093 28.2669 46.2227C30.3453 46.6361 32.4995 46.4239 34.4573 45.613C36.4151 44.8021 38.0884 43.4288 39.2657 41.6668C40.443 39.9049 41.0714 37.8334 41.0714 35.7143C41.0714 32.8727 39.9426 30.1475 37.9333 28.1382C35.924 26.1288 33.1988 25 30.3571 25Z" fill="#425C5A"/>
<path d="M34.4553 39.8125C33.76 40.5078 32.6328 40.5078 31.9375 39.8125L29.1572 37.0322C28.7821 36.6571 28.5714 36.1484 28.5714 35.618V30.3571C28.5714 29.3709 29.3709 28.5714 30.3571 28.5714V28.5714C31.3433 28.5714 32.1428 29.3709 32.1428 30.3571V34.1537C32.1428 34.6841 32.3535 35.1928 32.7286 35.5679L34.4553 37.2946C35.1506 37.9899 35.1506 39.1172 34.4553 39.8125V39.8125Z" fill="#425C5A"/>
<path d="M42.8571 7.14285C42.8571 6.19565 42.4809 5.28725 41.8111 4.61747C41.1413 3.9477 40.2329 3.57143 39.2857 3.57143H32.1428V1.78571C32.1428 0.799491 31.3434 0 30.3571 0V0C29.3709 0 28.5714 0.799491 28.5714 1.78571V3.57143H14.2857V1.78571C14.2857 0.799491 13.4862 0 12.5 0V0C11.5138 0 10.7143 0.799491 10.7143 1.78571V3.57143H3.57143C2.62423 3.57143 1.71582 3.9477 1.04605 4.61747C0.376274 5.28725 0 6.19565 0 7.14285V42.8571C0 43.8043 0.376274 44.7127 1.04605 45.3825C1.71582 46.0523 2.62423 46.4286 3.57143 46.4286H8.92857C9.91479 46.4286 10.7143 45.6291 10.7143 44.6428V44.6428C10.7143 43.6566 9.91479 42.8571 8.92857 42.8571H5.57143C4.46686 42.8571 3.57143 41.9617 3.57143 40.8571V9.14286C3.57143 8.03829 4.46686 7.14285 5.57143 7.14285H10.7143V8.92857C10.7143 9.91479 11.5138 10.7143 12.5 10.7143V10.7143C13.4862 10.7143 14.2857 9.91479 14.2857 8.92857V7.14285H28.5714V8.92857C28.5714 9.91479 29.3709 10.7143 30.3571 10.7143V10.7143C31.3434 10.7143 32.1428 9.91479 32.1428 8.92857V7.14285H37.2857C38.3903 7.14285 39.2857 8.03828 39.2857 9.14285V16.0714C39.2857 17.0576 40.0852 17.8571 41.0714 17.8571V17.8571C42.0576 17.8571 42.8571 17.0576 42.8571 16.0714V7.14285Z" fill="#425C5A"/>
</svg>
