<svg width="51" height="71" viewBox="0 0 51 71" fill="none" xmlns="http://www.w3.org/2000/svg">
<rect width="51" height="58" fill="#425C5A"/>
<path fill-rule="evenodd" clip-rule="evenodd" d="M51 24.3098L25.6977 13.1196L0 24.3098L1.58987e-06 42.0598L1.6258e-07 59.8098L25.3023 71L51 59.8098V42.0598V24.3098ZM30.0598 36.7959C32.1044 35.4082 33.4442 33.0878 33.4442 30.4596C33.4442 26.2107 29.9424 22.7663 25.6226 22.7663C21.3028 22.7663 17.801 26.2107 17.801 30.4596C17.801 33.0878 19.1409 35.4082 21.1854 36.7959C21.1346 36.9949 21.0921 37.2788 21.0304 37.6905L21.0304 37.6905C20.4788 41.3734 17.6582 46.6463 9.3689 47.5704C8.80164 47.6336 8.51801 47.6652 8.3306 47.778C8.1503 47.8865 8.0253 48.0262 7.93746 48.2174C7.84616 48.4161 7.84616 48.6805 7.84616 49.2092L7.84615 52.1406H43.399V54.2388H7.84615L7.84616 54.747C7.84616 55.2976 7.84616 55.5729 7.95161 55.784C8.0484 55.9777 8.20546 56.1347 8.39918 56.2315C8.61023 56.337 8.88554 56.337 9.43616 56.337H23.6474H27.5978H41.809C42.3597 56.337 42.635 56.337 42.846 56.2315C43.0397 56.1347 43.1968 55.9777 43.2936 55.784C43.399 55.5729 43.399 55.2976 43.399 54.747V49.2092C43.399 48.6805 43.399 48.4161 43.3078 48.2174C43.2199 48.0262 43.0949 47.8865 42.9146 47.778C42.7272 47.6652 42.4436 47.6336 41.8763 47.5704C33.587 46.6463 30.7664 41.3734 30.2148 37.6905C30.1531 37.2788 30.1106 36.9949 30.0598 36.7959Z" fill="#F8EAE1"/>
<rect y="3" width="51" height="3" fill="#92AEAC"/>
<rect y="7" width="51" height="1" fill="white" fill-opacity="0.8"/>
</svg>
