<svg width="30" height="30" viewBox="0 0 30 30" fill="none" xmlns="http://www.w3.org/2000/svg">
<path fill-rule="evenodd" clip-rule="evenodd" d="M0 15C0 18.9782 1.58035 22.7936 4.3934 25.6066C7.20644 28.4196 11.0218 30 15 30C18.9782 30 22.7936 28.4196 25.6066 25.6066C28.4196 22.7936 30 18.9782 30 15C30 11.0218 28.4196 7.20644 25.6066 4.3934C22.7936 1.58035 18.9782 0 15 0C11.0218 0 7.20644 1.58035 4.3934 4.3934C1.58035 7.20644 0 11.0218 0 15ZM27.4286 15C27.4286 18.2963 26.1191 21.4575 23.7883 23.7883C21.4575 26.1191 18.2963 27.4286 15 27.4286C11.7037 27.4286 8.54248 26.1191 6.21167 23.7883C3.88086 21.4575 2.57143 18.2963 2.57143 15C2.57143 11.7037 3.88086 8.54248 6.21167 6.21167C8.54248 3.88086 11.7037 2.57143 15 2.57143C18.2963 2.57143 21.4575 3.88086 23.7883 6.21167C26.1191 8.54248 27.4286 11.7037 27.4286 15Z" fill="#425C5A"/>
<path fill-rule="evenodd" clip-rule="evenodd" d="M8.57144 15C8.57144 22.752 11.1274 29.1429 15 29.1429C18.8726 29.1429 21.4286 22.752 21.4286 15C21.4286 7.24804 18.8726 0.857178 15 0.857178C11.1274 0.857178 8.57144 7.24804 8.57144 15ZM18.8572 15C18.8572 21.4492 16.8086 26.5715 15 26.5715C13.1914 26.5715 11.1429 21.4492 11.1429 15C11.1429 8.55089 13.1914 3.42861 15 3.42861C16.8086 3.42861 18.8572 8.55089 18.8572 15Z" fill="#425C5A"/>
<path d="M4.032 7.22916L5.75658 5.32288C5.928 5.47716 6.11486 5.63145 6.31372 5.78059C8.49258 7.41259 11.9709 8.42059 15.768 8.42059C19.0097 8.42059 22.0286 7.68859 24.2211 6.43545C24.7491 6.13373 25.2189 5.8063 25.6251 5.4583L27.2949 7.4143C26.737 7.88746 26.1355 8.30649 25.4983 8.66573C22.8994 10.1537 19.44 10.9903 15.768 10.9903C11.4446 10.9903 7.428 9.82802 4.77086 7.83773C4.51536 7.64633 4.26881 7.44326 4.032 7.22916ZM4.032 22.7983L5.75658 24.7046C5.928 24.5486 6.11486 24.396 6.31372 24.2469C8.49258 22.6149 11.9709 21.6069 15.768 21.6069C19.0097 21.6069 22.0286 22.3389 24.2211 23.592C24.7491 23.8937 25.2189 24.2212 25.6251 24.5692L27.2949 22.6132C26.7363 22.1409 26.1349 21.7219 25.4983 21.3617C22.8994 19.8737 19.44 19.0372 15.768 19.0372C11.4446 19.0372 7.428 20.1994 4.77086 22.1897C4.51536 22.3811 4.26881 22.5842 4.032 22.7983ZM0.857147 16.2857V13.7143H29.1429V16.2857H0.857147Z" fill="#425C5A"/>
</svg>
