<svg width="64" height="64" viewBox="0 0 64 64" fill="none" xmlns="http://www.w3.org/2000/svg">
<path d="M43.5722 34.0272C46.7026 31.5778 48.9875 28.2189 50.1091 24.4179C51.2306 20.6169 51.133 16.5627 49.8298 12.8194C48.5267 9.07613 46.0827 5.82988 42.838 3.53228C39.5933 1.23468 35.7092 0 31.726 0C27.7429 0 23.8588 1.23468 20.6141 3.53228C17.3694 5.82988 14.9254 9.07613 13.6222 12.8194C12.3191 16.5627 12.2215 20.6169 13.343 24.4179C14.4646 28.2189 16.7495 31.5778 19.8799 34.0272C14.5159 36.1644 9.83555 39.7092 6.33792 44.2838C2.84029 48.8583 0.65647 54.291 0.0192598 60.0028C-0.0268648 60.4198 0.0100529 60.8418 0.127904 61.2446C0.245755 61.6474 0.442232 62.0232 0.706117 62.3506C1.23906 63.0116 2.01421 63.435 2.86106 63.5276C3.7079 63.6203 4.55706 63.3746 5.22174 62.8445C5.88642 62.3145 6.31217 61.5436 6.40532 60.7014C7.10646 54.4939 10.0827 48.7609 14.7654 44.5978C19.448 40.4346 25.5089 38.1332 31.7899 38.1332C38.0709 38.1332 44.1317 40.4346 48.8144 44.5978C53.4971 48.7609 56.4733 54.4939 57.1745 60.7014C57.2613 61.4817 57.6357 62.2024 58.2253 62.7243C58.815 63.2462 59.5781 63.5324 60.3675 63.5276H60.7187C61.5557 63.4319 62.3208 63.011 62.8471 62.3567C63.3734 61.7024 63.6184 60.8677 63.5286 60.0346C62.8884 54.3066 60.6928 48.8599 57.1772 44.2783C53.6616 39.6968 48.9585 36.1531 43.5722 34.0272ZM31.726 31.7725C29.2 31.7725 26.7306 31.0276 24.6302 29.6319C22.5299 28.2361 20.8928 26.2524 19.9261 23.9314C18.9594 21.6104 18.7065 19.0564 19.1993 16.5925C19.6922 14.1285 20.9086 11.8652 22.6948 10.0888C24.481 8.3124 26.7568 7.10265 29.2343 6.61254C31.7119 6.12243 34.2799 6.37397 36.6137 7.33536C38.9475 8.29674 40.9422 9.92479 42.3457 12.0136C43.7491 14.1025 44.4982 16.5583 44.4982 19.0705C44.4982 22.4393 43.1525 25.6701 40.7573 28.0522C38.3621 30.4343 35.1134 31.7725 31.726 31.7725Z" fill="black"/>
</svg>
