<svg width="50" height="50" viewBox="0 0 50 50" fill="none" xmlns="http://www.w3.org/2000/svg">
<path d="M25 10.5186C24.5055 10.5186 24.0222 10.6652 23.6111 10.9399C23.2 11.2146 22.8795 11.605 22.6903 12.0618C22.5011 12.5187 22.4516 13.0213 22.548 13.5063C22.6445 13.9912 22.8826 14.4367 23.2322 14.7863C23.5819 15.136 24.0273 15.3741 24.5123 15.4705C24.9972 15.567 25.4999 15.5175 25.9567 15.3283C26.4135 15.139 26.804 14.8186 27.0787 14.4075C27.3534 13.9964 27.5 13.513 27.5 13.0186C27.5 12.3555 27.2366 11.7196 26.7678 11.2508C26.2989 10.7819 25.663 10.5186 25 10.5186V10.5186Z" fill="#425C5A"/>
<path d="M25 50C20.0555 50 15.222 48.5338 11.1108 45.7867C6.99952 43.0397 3.79521 39.1352 1.90302 34.5671C0.0108321 29.9989 -0.484251 24.9723 0.480379 20.1228C1.44501 15.2732 3.82603 10.8187 7.32234 7.32234C10.8187 3.82603 15.2732 1.44501 20.1228 0.480379C24.9723 -0.484251 29.9989 0.0108321 34.5671 1.90302C39.1352 3.79521 43.0397 6.99952 45.7867 11.1108C48.5338 15.222 50 20.0555 50 25C50 31.6304 47.3661 37.9893 42.6777 42.6777C37.9893 47.3661 31.6304 50 25 50ZM25 3.57144C20.7618 3.57144 16.6188 4.8282 13.0949 7.1828C9.57102 9.5374 6.82447 12.8841 5.20259 16.7996C3.58071 20.7152 3.15636 25.0238 3.98318 29.1805C4.81001 33.3372 6.85088 37.1555 9.84772 40.1523C12.8446 43.1491 16.6628 45.19 20.8195 46.0168C24.9762 46.8437 29.2848 46.4193 33.2004 44.7974C37.1159 43.1755 40.4626 40.429 42.8172 36.9051C45.1718 33.3812 46.4286 29.2382 46.4286 25C46.4286 19.3168 44.1709 13.8664 40.1523 9.84772C36.1337 5.82908 30.6832 3.57144 25 3.57144V3.57144Z" fill="#425C5A"/>
<rect x="22.5" y="20" width="5" height="20" rx="2.5" fill="#425C5A"/>
</svg>
