<svg width="40" height="34" viewBox="0 0 40 34" fill="none" xmlns="http://www.w3.org/2000/svg">
<path fill-rule="evenodd" clip-rule="evenodd" d="M33.4921 14.4284C32.8037 15.1239 31.8507 15.5556 30.7937 15.5556C29.7366 15.5556 28.7837 15.1239 28.0952 14.4284C27.4069 15.1239 26.4539 15.5556 25.3968 15.5556C24.3398 15.5556 23.3868 15.1239 22.6984 14.4284C22.01 15.1239 21.0571 15.5556 20 15.5556C18.9429 15.5556 17.99 15.1239 17.3016 14.4284C16.6132 15.1239 15.6602 15.5556 14.6032 15.5556C13.5461 15.5556 12.5931 15.1239 11.9048 14.4284C11.2163 15.1239 10.2634 15.5556 9.20633 15.5556C8.14933 15.5556 7.19633 15.1239 6.50789 14.4284C6.16738 14.7725 5.76211 15.0519 5.31152 15.2465V29.7908H34.4269V15.1214C34.0803 14.939 33.7654 14.7045 33.4921 14.4284ZM38.4269 14.8263V31.7908C38.4269 32.8954 37.5315 33.7908 36.4269 33.7908H3.31152C2.20695 33.7908 1.31152 32.8954 1.31152 31.7908V14.6169C0.506891 13.9128 0 12.8753 0 11.7233V9.06767C0 8.71533 0.061422 8.36555 0.181611 8.03422L2.60403 1.35732C2.8981 0.546778 3.6668 0 4.53544 0H35.4646C36.3332 0 37.1019 0.546778 37.396 1.35733L39.8184 8.03422C39.9386 8.36555 40 8.71533 40 9.06767V11.7233C40 12.9956 39.3817 14.1282 38.4269 14.8263Z" fill="#425C5A"/>
</svg>
