<svg id="레이어_1" data-name="레이어 1" xmlns="http://www.w3.org/2000/svg" viewBox="0 0 2000 800"><defs><style>.cls-1{fill:#fff;}</style></defs><path class="cls-1" d="M290.29,161.2c26.9-1.66,53.13-1.43,79.36,5.47,30.79,7.83,60,23.94,78.4,50.42,14.73,20.67,20.11,45.3,19.4,70.39-33.89.18-67.81-.38-101.73-.75-1.8-8.09-4-15.57-10.21-21.48C343,252.88,324,247,306.67,246.69c-14.82-.64-31.51.58-44.08,9.28-6.22,4.62-12.32,11.92-11,20.22.44,5.44,4.84,8.95,9.53,10.94,14.54,6.21,32,7.27,47.43,9.67,23.85,3.3,47.29,7.88,70.06,15.81,19.12,6.92,36.63,15.7,49.91,31.55,10.54,12.23,15.45,27.19,16.6,43.11l-1.62.05c-37.84-.35-76.2.56-113.95-.45-19-9.42-39-11.31-59.75-13.67-27.66-3.95-57.46-10.57-82-24.38-16-9-30.72-22.49-37.38-39.93-9.21-23.31-5.75-51,5.23-73.12,8.16.12,16.34.12,24.5.14,1.87-3.23,3.74-6.48,5.61-9.7-20-.07-40-.31-60.07-.33,2.9-3.81,5.77-7.6,8.69-11.38,28,.14,55.92-.33,83.9-.17,2-3.78,4-7.59,5.91-11.38-14-.19-28.12.09-42.17-.28,30.84-25.32,69-37.43,108.26-41.47Z"/><path class="cls-1" d="M483.21,160.69c5.8-.52,11.69-.21,17.51-.24,99.42.1,198.83-.09,298.25.1-4.35,26.71-9.09,53.43-12.67,80.24-34.66.8-69.35.15-104,.33-8,48.72-15.1,97.62-23.35,146.29-29.36-.26-58.72-.12-88.08-.09-7.2-.21-13.77,1.19-20.22-2.27,3.2-11.85,4.37-23.92,6.4-36,5.84-35.6,10.75-71.43,17.25-106.92a130,130,0,0,0-22.13-1.05q-40.89.1-81.77,0c1.23-15.19,4.58-29.94,6.66-45,2.22-11.73,3.18-23.84,6.17-35.41Z"/><path class="cls-1" d="M827.89,158.86c21.08-.33,42.17-.11,63.25-.14-.88,7.27-2,14.47-3.55,21.62-5.7,27.38-10.49,54.94-16.43,82.26-21.16,0-42.31.1-63.49-.09,6.89-34.5,14-69,20.22-103.65Z"/><path class="cls-1" d="M1710.8,158.7q54.32,0,108.65,0c-4.58,29.08-9.35,58.14-13.91,87.24,28.29.07,56.6,0,84.88,0-4.28,24.59-7.6,49.34-11.78,74-28.14-.09-56.29.12-84.41-.12-4,22.4-7.11,45-10.85,67.42h-.6q-54,0-108,0c3.41-22.45,7.15-44.84,10.49-67.28q-39.58,0-79.17,0,5.61-37,11.57-74c26.35.09,52.69,0,79,0,5-29,9.28-58.2,14.1-87.28Z"/><path class="cls-1" d="M1060.5,238.39c25.48-4.84,54.21-1.57,76.75,11.83,13.6,7.94,24.26,19.35,32.86,32.44,2-12.22,3.6-24.5,5.75-36.68,35.7,0,71.39,0,107.09,0-7.27,47.12-14.75,94.23-22.11,141.33-36-.19-72.07.07-108.1-.12,6.32-20.59,5.26-44.9-8.29-62.44-9.49-12.31-25.23-19.21-40.68-18.72-20.5.37-39.18,10.24-52.83,25.22-14.58,15.17-22.13,35.11-23.47,56q-49.68,0-99.35,0A163.8,163.8,0,0,1,961,302.2c24.36-31.88,59.37-57,99.46-63.81Z"/><path class="cls-1" d="M1567.2,245.7c15.45,8,26.09,22.09,31.49,38.41,9.23,26.81,6.45,57.95,2,85.46q-53.87,0-107.72,0c1.68-10.94,3.2-21.34,0-32.21-2.26-10-9.37-18.73-19.77-20.78-17.09-3.77-34.2,4.84-45.42,17.41-12.88,14.78-20.85,34-23.89,53.3-36,.12-72-.16-108,.12q10.88-70.69,22.11-141.36c35.89-.12,71.79-.05,107.67,0-2.4,16-5.3,31.88-7.34,47.92,19.9-24.31,45.49-43.48,75.72-52.83,24.15-7.18,50.47-6.9,73.21,4.6Z"/><path class="cls-1" d="M110,383.2c35.27-.19,70.57-.07,105.84-.07.94,10.92,3.58,21,11.2,29.2,13.23,15.78,36.8,19.66,56.27,19.4,11.29.21,21.53-4.72,32.7-4.63,33.52.12,67,.07,100.56,0,7,.07,14.47-.54,21.42.82-4.91,15.68-16,29.82-27.77,41-26.56,24.82-63.94,38.69-99.35,44.27-37,5.29-77.66,5.38-113.49-6.43-26.65-9-53.53-25.38-69-49.44-14.63-21.83-20.43-48.1-18.35-74.17Z"/><path class="cls-1" d="M443.49,387.32l1.62-.05c35.55.3,71.18-.61,106.71.49-2.36,13.09-4.33,26.23-6,39.41h-1.1c-35.09-.23-70.27.45-105.36-.33-1.59-4.23-.53-8.15,0-12.5,1.56-9,2.45-18.07,4.13-27Z"/><path class="cls-1" d="M832.24,387.29q48-.06,96.07,0c-.07,13.42-.51,26.63,2.08,39.88h-1.31c-34.2,0-68.39.05-102.62,0,1.83-13.3,3.93-26.56,5.78-39.86Z"/><path class="cls-1" d="M1782.78,387.27h.6c28.64.19,57.32-.35,86,.28-2.2,13.14-4,26.32-5.82,39.5-28.76.33-57.53-.07-86.31.24,1.68-13.37,3.81-26.67,5.57-40Z"/><path class="cls-1" d="M544.69,427.17h1.1c35.67,0,71.34-.07,107,.07-4.05,26.67-8.4,53.32-12.53,80-36,0-72.12.07-108.19,0,4.12-26.67,8.46-53.32,12.58-80Z"/><path class="cls-1" d="M929.08,427.17h1.31c36.14.07,72.28-.14,108.42.12,6.83,7.85,14.63,14.19,25,16.78,21.9,6,44.76-3.18,61.71-17,42.94.28,85.91.12,128.87.1-3.53,26.62-8.34,53.08-12.16,79.68-35.76.33-71.53.1-107.29.12,2.31-14.31,4.58-28.63,6.45-43-12.95,13.93-27.37,26.15-44.09,35.32-27,15.17-58.88,21-89.36,15.26a94.68,94.68,0,0,1-60.43-39.43c-9.91-14.4-15.36-30.74-18.4-47.88Z"/><path class="cls-1" d="M1289.78,427.08c36,.3,71.9-.12,107.85.21-5.07,26.34-8.67,53.06-12.81,79.57-35.93.19-71.86.12-107.78.05,4.27-26.58,8-53.32,12.74-79.83Z"/><path class="cls-1" d="M1668.72,427.45c35.89-.7,72.14,0,108.09-.3-3.57,26.65-7.87,53.37-12.53,79.87-36.11-.14-72.23,0-108.32-.09,4.3-26.44,7.88-53.18,12.76-79.48Z"/><path class="cls-1" d="M132.32,606.48h76.15l-1.59,9H174l-3.4,19.25h-10L164,615.51h-33.3Zm17.56-29.05H201c6.9,0,11.55,5.54,10.32,12.53a15.54,15.54,0,0,1-14.73,12.52H145.46c-6.9,0-11.54-5.54-10.31-12.52A15.54,15.54,0,0,1,149.88,577.43Zm-.64,16.19h46.68a4.48,4.48,0,0,0,4.39-3.66,3,3,0,0,0-3.1-3.67H150.53a4.47,4.47,0,0,0-4.39,3.67A3,3,0,0,0,149.24,593.62Z"/><path class="cls-1" d="M240.16,577.43h46.77l-5.62,31.86h-36.8l-2.93,16.62h36.8l-1.56,8.85H230.06l6.05-34.33h36.8l2.49-14.14H238.6Zm64.55-.85h10l-10.41,59h-10Z"/><path class="cls-1" d="M333.37,625.65H390l-1.61,9.11H331.76Zm21.78-48.22H386.5c7.24,0,12.1,5.8,10.8,13.12s-8.2,13.21-15.44,13.21H350.51c-7.24,0-12.18-5.8-10.87-13.21A16.36,16.36,0,0,1,355.15,577.43ZM354,595h27.34a5.39,5.39,0,0,0,5.21-4.43,3.54,3.54,0,0,0-3.66-4.34H355.57a5.46,5.46,0,0,0-5.2,4.34A3.6,3.6,0,0,0,354,595Zm52.9-18.4h10l-10.41,59h-10Z"/><path class="cls-1" d="M528.35,634.76c-14.31,0-20.07-6-22.63-12.26-4.77,6.3-12.72,12.26-27,12.26l1.6-9c12.69,0,20.91-8.43,22.6-16.1l5.67-32.2H518.7L513,609.63c-1,7.67,4.23,16.1,16.92,16.1Zm25.08-58.18h10l-10.41,59H543Z"/><path class="cls-1" d="M586.14,605.54h71.8l-5.15,29.22h-10l3.59-20.36H584.58Zm5-28.11h55.29l-1.54,8.7H622.36c-.37,8.34,9.24,7.49,21.16,7.49l-1.5,8.52c-17.21,0-23.75-1.54-26.33-7.16-4.66,5.62-11.74,7.16-29,7.16l1.5-8.52c11.84,0,21.32.85,23.81-7.49H589.56Zm62-.85h10L661.56,585h8.35l-1.59,9H660l-1.42,8.1h-10Z"/><path class="cls-1" d="M685.75,623.18h11.5l-9,18.14h-8.69Z"/><path class="cls-1" d="M780.27,606h71l-5.08,28.79H775.19Zm2-25.81h25.13l.93-5.28h10l-.93,5.28h22.49L838.36,589h-4.08a7.37,7.37,0,0,1,.42,4.34c-1.12,6.39-7,9.21-12.18,9.21H791.68c-5.36,0-10.06-2.82-8.93-9.21a9.56,9.56,0,0,1,2-4.34h-4ZM786.7,626h51l2-11.16h-51Zm9.68-31.69h24.53c1.79,0,3.65-.42,4-2.64.42-2.38-1.32-2.64-3.11-2.64H797.31c-1.62,0-3.45.26-3.87,2.64C793.05,593.88,794.76,594.3,796.38,594.3Zm50-17.72h10l-1.35,7.67h8.35l-1.6,9h-8.34l-1.64,9.29h-10Z"/><path class="cls-1" d="M885.81,577.43h22.06L889,634.76H878.68l15.62-48H884.17Zm23.76,0h21.64L925.74,594h6.64l3.07-17.38h9.79l-10.41,59H925l5.78-32.79h-8l-10.48,31.94H902l15.62-48h-9.71Zm41.72-.85h9.88l-10.41,59h-9.88Z"/><path class="cls-1" d="M1029,605.8h10l-3.55,20.11h61l-1.56,8.85h-70.95Zm4.15-28.37h54.09l-4.4,25h-54.09Zm7.13,16.11h34.16l1.27-7.25h-34.15Zm54.86-17h10l-1.4,7.93h8.35l-1.59,9h-8.35l-1.56,8.85h-10Z"/><path class="cls-1" d="M1130.28,608.27h74.36l-2.93,16.61h-64.4l-.39,2.22h64.4l-1.35,7.66h-74.36l2.94-16.69H1193l.37-2.13h-64.39Zm.94-10.14h76.14l-1.36,7.76h-76.15Zm4.5-20.7h74.35l-1.36,7.76h-64.4l-.52,3h64.39l-1.36,7.75h-74.36Z"/><path class="cls-1" d="M1260.93,576.92c12.69,0,21.84,8,19.61,20.7l-3,17c-2.26,12.78-14.22,20.71-26.9,20.71s-21.87-7.93-19.61-20.71l3-17C1236.27,584.93,1248.16,576.92,1260.93,576.92Zm-20.11,38.25c-1.26,7.16,4.33,11.16,11.4,11.16s14.08-4,15.34-11.16l3.21-18.23c1.25-7.07-4.25-11.16-11.4-11.16s-14.09,4.09-15.34,11.16Zm44.8-16.44h12.61l3.9-22.15h10l-10.41,59h-10l5-28h-12.61Z"/><path class="cls-1" d="M1384.18,577.43h47.53l-21.19,57.33h-10.47l17.59-48h-35.1Zm61-.85h10l-3,17.3h9.19l-1.59,9h-9.19l-5.77,32.71h-10Z"/><path class="cls-1" d="M1481.21,608.27h10l-3.11,17.64h64.4l-1.56,8.85h-74.36Zm1.18-11.5h76.14l-1.56,8.86h-76.15Zm4.27-19.42h10l-1.37,7.75h64.4l-1.57,8.86h-74.36Z"/><path class="cls-1" d="M1627.85,605.54h71.81l-5.15,29.22h-10l3.59-20.36h-61.84Zm5-28.11h55.28l-1.53,8.7h-22.49c-.36,8.34,9.24,7.49,21.17,7.49l-1.51,8.52c-17.2,0-23.74-1.54-26.33-7.16-4.66,5.62-11.74,7.16-29,7.16l1.5-8.52c11.85,0,21.32.85,23.81-7.49h-22.48Zm62-.85h10l-1.49,8.44h8.34l-1.59,9h-8.34l-1.43,8.1h-10Z"/><path class="cls-1" d="M1730.32,601.2h76.15l-1.56,8.86h-33.05l-.5,2.81h32.11l-3.86,21.89h-74.36l3.86-21.89h32.28l.5-2.81h-33.13Zm5-23.77h74.36l-1.56,8.86h-10.31l-2.36,3.75h12l-1.52,8.61h-74.36l1.52-8.61h11.75l-1.13-3.75h-10Zm1.41,48.56h54.42l.76-4.26h-54.43Zm19.37-36h28.1l2.2-3.75h-31.18Z"/></svg>