<svg width="320" height="60" viewBox="0 0 320 60" fill="none" xmlns="http://www.w3.org/2000/svg">
<path d="M0 10C0 4.47715 4.47715 0 10 0H310C315.523 0 320 4.47715 320 10V50C320 55.5228 315.523 60 310 60H10C4.47715 60 0 55.5228 0 50V10Z" fill="#FFCEA2" fill-opacity="0.5"/>
<path fill-rule="evenodd" clip-rule="evenodd" d="M10 1C5.02944 1 1 5.02944 1 10V50C1 54.9706 5.02944 59 10 59H310C314.971 59 319 54.9706 319 50V10C319 5.02944 314.971 1 310 1H10ZM10 0C4.47715 0 0 4.47715 0 10V50C0 55.5228 4.47715 60 10 60H310C315.523 60 320 55.5228 320 50V10C320 4.47715 315.523 0 310 0H10Z" fill="#EE795F" fill-opacity="0.8"/>
<path d="M228 15C228 13.3431 229.343 12 231 12C232.657 12 234 13.3431 234 15V45C234 46.6569 232.657 48 231 48C229.343 48 228 46.6569 228 45V15Z" fill="#F3F3F3"/>
</svg>
