<svg width="153" height="153" viewBox="0 0 153 153" fill="none" xmlns="http://www.w3.org/2000/svg">
<mask id="mask0_901_3262" style="mask-type:alpha" maskUnits="userSpaceOnUse" x="41" y="46" width="71" height="67">
<path d="M43.8333 48.4066H109.167V61.4733L106.883 62.8453C105.106 63.9115 103.073 64.4746 101.001 64.4746C98.9286 64.4746 96.8953 63.9115 95.1183 62.8453L92.8333 61.4733L90.5499 62.8453C88.773 63.9115 86.7397 64.4746 84.6675 64.4746C82.5952 64.4746 80.5619 63.9115 78.785 62.8453L76.5 61.4733L74.2166 62.8453C72.4395 63.9118 70.4059 64.4751 68.3333 64.4751C66.2607 64.4751 64.2272 63.9118 62.45 62.8453L60.1666 61.4733L57.8816 62.8453C56.1049 63.9111 54.0719 64.4742 52 64.4742C49.9281 64.4742 47.8951 63.9111 46.1183 62.8453L43.8333 61.4733V48.4066Z" fill="white" stroke="white" stroke-width="4" stroke-linecap="round" stroke-linejoin="round"/>
<path d="M101 66.3733V81.0733M47.1 81.0733H105.9V110.473H47.1V81.0733ZM52 66.3733V81.0733V66.3733Z" stroke="white" stroke-width="4" stroke-linecap="round" stroke-linejoin="round"/>
</mask>
<g mask="url(#mask0_901_3262)">
<path d="M37.3 40.24H115.7V118.64H37.3V40.24Z" fill="#EE795F"/>
</g>
<path d="M76.5 150C117.093 150 150 117.093 150 76.5C150 35.9071 117.093 3 76.5 3C35.9071 3 3 35.9071 3 76.5C3 117.093 35.9071 150 76.5 150Z" stroke="#EE795F" stroke-width="5" stroke-linecap="round" stroke-linejoin="round"/>
<path d="M76.5 127.19C104.495 127.19 127.19 104.495 127.19 76.4998C127.19 48.5047 104.495 25.8102 76.5 25.8102C48.5048 25.8102 25.8103 48.5047 25.8103 76.4998C25.8103 104.495 48.5048 127.19 76.5 127.19Z" stroke="#EE795F" stroke-width="5" stroke-linecap="round" stroke-linejoin="round"/>
</svg>
