<svg width="100" height="114" viewBox="0 0 100 114" fill="none" xmlns="http://www.w3.org/2000/svg">
<path fill-rule="evenodd" clip-rule="evenodd" d="M100 21.9416L50.3877 0L8.08059e-05 21.9416L8.39233e-05 56.7455L0 56.7455V91.5495L49.6124 113.491L100 91.5495V56.7455H100V21.9416ZM59.0553 46.3456C62.9994 43.6159 65.5765 39.104 65.5765 34.0001C65.5765 25.6689 58.7101 18.9152 50.24 18.9152C41.7699 18.9152 34.9035 25.6689 34.9035 34.0001C34.9035 39.1041 37.4807 43.6162 41.425 46.3458C41.4192 46.4268 41.4134 46.5143 41.407 46.6091V46.6091C40.9113 53.9951 35.5637 66.2505 16.9116 67.6879C16.36 67.7303 16.0843 67.7516 15.8896 67.8624C15.7068 67.9665 15.5697 68.1145 15.48 68.3049C15.3844 68.5074 15.3844 68.7722 15.3844 69.3018V83.1501C15.3844 83.7007 15.3844 83.9761 15.4899 84.1871C15.5867 84.3808 15.7437 84.5379 15.9375 84.6347C16.1485 84.7401 16.4238 84.7401 16.9744 84.7401L46.3673 84.7401H83.5059C84.0565 84.7401 84.3318 84.7401 84.5429 84.6347C84.7366 84.5379 84.8937 84.3808 84.9905 84.1871C85.0959 83.9761 85.0959 83.7008 85.0959 83.1501V80.626H85.0961V76.512H85.0959V69.3018C85.0959 68.7722 85.0959 68.5075 85.0004 68.3049C84.9106 68.1146 84.7736 67.9666 84.5907 67.8624C84.3961 67.7516 84.1203 67.7304 83.5688 67.6879H83.5688C64.9167 66.2505 59.5691 53.9951 59.0734 46.6091C59.067 46.5142 59.0611 46.4266 59.0553 46.3456ZM85.0959 76.512H15.3846V80.626H85.0959V76.512Z" fill="#425C5A"/>
</svg>
