<svg width="153" height="153" viewBox="0 0 153 153" fill="none" xmlns="http://www.w3.org/2000/svg">
<path d="M46.9911 50.0399C42.1864 50.0399 38.28 53.8952 38.28 58.652V93.1005C38.28 97.8506 42.1864 101.713 46.9911 101.713H107.969C112.78 101.713 116.68 97.8506 116.68 93.1005V58.652C116.68 53.8952 112.78 50.0399 107.969 50.0399H46.9911ZM99.2578 93.1005C99.2578 88.3504 103.157 84.4884 107.969 84.4884V93.1005H99.2578ZM107.969 67.2642C103.157 67.2642 99.2578 63.4022 99.2578 58.652H107.969V67.2642ZM46.9911 93.1005V84.4884C51.7958 84.4884 55.7022 88.3504 55.7022 93.1005H46.9911ZM46.9911 58.652H55.7022C55.7022 63.4022 51.7958 67.2642 46.9911 67.2642V58.652ZM77.48 88.7945C70.2661 88.7945 64.4133 83.0082 64.4133 75.8763C64.4133 68.6233 70.2661 62.9581 77.48 62.9581C84.8164 62.9581 90.5467 68.6233 90.5467 75.8763C90.5467 83.0082 84.8164 88.7945 77.48 88.7945Z" fill="#EE795F"/>
<path d="M76.5 150C117.093 150 150 117.093 150 76.5C150 35.9071 117.093 3 76.5 3C35.9071 3 3 35.9071 3 76.5C3 117.093 35.9071 150 76.5 150Z" stroke="#EE795F" stroke-width="5" stroke-linecap="round" stroke-linejoin="round"/>
<path d="M76.5 127.19C104.495 127.19 127.19 104.495 127.19 76.4998C127.19 48.5047 104.495 25.8102 76.5 25.8102C48.5049 25.8102 25.8103 48.5047 25.8103 76.4998C25.8103 104.495 48.5049 127.19 76.5 127.19Z" stroke="#EE795F" stroke-width="5" stroke-linecap="round" stroke-linejoin="round"/>
</svg>
