<svg width="153" height="153" viewBox="0 0 153 153" fill="none" xmlns="http://www.w3.org/2000/svg">
<path d="M116.656 48.2413C116.656 47.1656 116.228 46.134 115.468 45.3734C114.707 44.6127 113.675 44.1854 112.6 44.1854C112.393 44.1854 112.194 44.2163 111.995 44.2462V44.16H42.3359V44.1854C41.2602 44.1854 40.2286 44.6127 39.4679 45.3734C38.7073 46.134 38.28 47.1656 38.28 48.2413V106.74H38.3253C38.5539 108.763 40.2508 110.342 42.335 110.342V110.368H111.994V110.282C112.192 110.312 112.391 110.342 112.599 110.342C114.684 110.342 116.381 108.764 116.609 106.74H116.68V48.2413H116.656ZM107.65 101.337H97.7999C97.7668 101.198 97.7162 101.063 97.6493 100.936L97.6657 100.927L77.0605 65.2386L77.0524 65.2431C76.8251 64.7711 76.4694 64.3726 76.026 64.0935C75.5826 63.8143 75.0695 63.6659 74.5455 63.665C74.0072 63.6657 73.4805 63.822 73.0288 64.115C72.5771 64.408 72.2198 64.8253 71.9997 65.3166L58.2874 89.0661L54.9299 83.2517L54.9254 83.2544C54.8057 83.0054 54.6182 82.7952 54.3844 82.6479C54.1507 82.5007 53.8802 82.4223 53.6039 82.4218C53.0062 82.4218 52.4938 82.78 52.2625 83.2906L47.3106 91.8677V53.216H107.65V101.337Z" fill="#EE795F"/>
<path d="M93.9162 76.0704C98.9753 76.0704 103.076 71.9692 103.076 66.9101C103.076 61.8511 98.9753 57.7499 93.9162 57.7499C88.8571 57.7499 84.756 61.8511 84.756 66.9101C84.756 71.9692 88.8571 76.0704 93.9162 76.0704Z" fill="#EE795F"/>
<path d="M76.5 150C117.093 150 150 117.093 150 76.5C150 35.9071 117.093 3 76.5 3C35.9071 3 3 35.9071 3 76.5C3 117.093 35.9071 150 76.5 150Z" stroke="#EE795F" stroke-width="5" stroke-linecap="round" stroke-linejoin="round"/>
<path d="M76.5 127.19C104.495 127.19 127.19 104.495 127.19 76.4998C127.19 48.5047 104.495 25.8102 76.5 25.8102C48.5049 25.8102 25.8103 48.5047 25.8103 76.4998C25.8103 104.495 48.5049 127.19 76.5 127.19Z" stroke="#EE795F" stroke-width="5" stroke-linecap="round" stroke-linejoin="round"/>
</svg>
