<svg width="153" height="153" viewBox="0 0 153 153" fill="none" xmlns="http://www.w3.org/2000/svg">
<path d="M99.6084 68.1501L84.6268 53.2614C84.4001 50.0335 85.1762 46.8142 86.8506 44.0364C88.5251 41.2587 91.0176 39.0558 93.9929 37.724C96.9682 36.3922 100.284 35.9954 103.493 36.5869C106.703 37.1785 109.653 38.73 111.946 41.0329C114.262 43.3118 115.821 46.2372 116.413 49.4179C117.006 52.5986 116.605 55.8829 115.264 58.8315C113.922 61.78 111.704 64.2523 108.906 65.9176C106.109 67.5829 102.865 68.3618 99.6084 68.1501ZM43.9282 97.1334L80.7813 60.6462L92.1176 71.8822L55.2645 108.409L43.9682 97.1334H43.9282ZM38.3201 108.369L46.7723 99.9524L52.4605 105.59L43.9682 114.007L38.28 108.369H38.3201ZM76.5752 95.9423L84.5868 88.0017V115.794H76.5752V95.9423Z" fill="#EE795F"/>
<path d="M76.5 150C117.093 150 150 117.093 150 76.5C150 35.9071 117.093 3 76.5 3C35.9071 3 3 35.9071 3 76.5C3 117.093 35.9071 150 76.5 150Z" stroke="#EE795F" stroke-width="5" stroke-linecap="round" stroke-linejoin="round"/>
<path d="M76.5 127.19C104.495 127.19 127.19 104.495 127.19 76.4998C127.19 48.5047 104.495 25.8102 76.5 25.8102C48.5049 25.8102 25.8104 48.5047 25.8104 76.4998C25.8104 104.495 48.5049 127.19 76.5 127.19Z" stroke="#EE795F" stroke-width="5" stroke-linecap="round" stroke-linejoin="round"/>
</svg>
