<svg width="153" height="153" viewBox="0 0 153 153" fill="none" xmlns="http://www.w3.org/2000/svg">
<path d="M76.5 150C117.093 150 150 117.093 150 76.5C150 35.9071 117.093 3 76.5 3C35.9071 3 3 35.9071 3 76.5C3 117.093 35.9071 150 76.5 150Z" stroke="#EE795F" stroke-width="5" stroke-linecap="round" stroke-linejoin="round"/>
<path d="M76.5 127.189C104.495 127.189 127.19 104.495 127.19 76.4996C127.19 48.5045 104.495 25.8099 76.5 25.8099C48.5049 25.8099 25.8104 48.5045 25.8104 76.4996C25.8104 104.495 48.5049 127.189 76.5 127.189Z" stroke="#EE795F" stroke-width="5" stroke-linecap="round" stroke-linejoin="round"/>
<path d="M80.8975 58.4184C80.8975 57.3358 81.2186 56.2775 81.82 55.3774C82.4215 54.4773 83.2763 53.7757 84.2765 53.3614C85.2767 52.9471 86.3772 52.8387 87.439 53.0499C88.5008 53.2611 89.4761 53.7824 90.2416 54.5479C91.0071 55.3134 91.5284 56.2888 91.7396 57.3505C91.9508 58.4123 91.8424 59.5129 91.4281 60.513C91.0138 61.5132 90.3123 62.3681 89.4121 62.9695C88.512 63.571 87.4537 63.892 86.3712 63.892C84.9195 63.892 83.5272 63.3153 82.5007 62.2888C81.4742 61.2623 80.8975 59.8701 80.8975 58.4184ZM101.766 90.8496C92.7 99.9153 78.5712 103.849 59.6188 102.618C60.132 106.142 60.8162 109.802 61.6372 113.634C61.8717 114.695 61.6757 115.806 61.0921 116.723C60.5085 117.64 59.585 118.289 58.5241 118.526L57.6346 118.628C56.7013 118.627 55.7962 118.308 55.0686 117.723C54.3409 117.139 53.8343 116.324 53.632 115.413C52.5715 110.657 51.7847 106.107 51.2031 101.797C46.8926 101.215 42.3427 100.394 37.5875 99.3679C36.5214 99.132 35.5927 98.4823 35.0056 97.5617C34.4186 96.641 34.2213 95.5249 34.4572 94.4588C34.6931 93.3927 35.3429 92.464 36.2635 91.877C37.1842 91.2899 38.3003 91.0927 39.3664 91.3286C43.1637 92.1838 46.8584 92.868 50.3821 93.3812C49.1505 74.4287 53.0847 60.2999 62.1504 51.2342C76.6555 36.6949 99.4394 40.2528 106.076 41.6896C107.359 41.9681 108.534 42.6097 109.462 43.5377C110.39 44.4658 111.032 45.6412 111.31 46.9238C112.747 53.5605 116.305 76.3445 101.766 90.8496ZM72.7555 53.2526C73.1549 60.2754 76.1224 66.9062 81.0931 71.8833C86.0638 76.8603 92.6909 79.8361 99.7131 80.2445C102.313 76.0366 103.887 70.9051 104.4 64.9183C104.783 59.7686 104.473 54.5907 103.476 49.5237C97.8316 48.429 83.6343 46.5817 72.7555 53.2526ZM76.9291 93.8259C83.3949 92.7654 88.8001 90.6786 93.0079 87.5654C86.2979 85.9979 80.1599 82.5851 75.2874 77.7126C70.4149 72.8401 67.0021 66.7021 65.4345 59.9921C62.3214 64.1999 60.2004 69.6051 59.1741 76.0708C58.2846 81.4076 58.1136 87.5312 58.6609 94.3391C65.4687 94.8522 71.5582 94.7154 76.9291 93.8259Z" fill="#EE795F"/>
</svg>
