<svg width="332" height="12" viewBox="0 0 332 12" fill="none" xmlns="http://www.w3.org/2000/svg">
<path d="M0.666667 6C0.666667 8.94552 3.05448 11.3333 6 11.3333C8.94552 11.3333 11.3333 8.94552 11.3333 6C11.3333 3.05448 8.94552 0.666667 6 0.666667C3.05448 0.666667 0.666667 3.05448 0.666667 6ZM320.667 6C320.667 8.94552 323.054 11.3333 326 11.3333C328.946 11.3333 331.333 8.94552 331.333 6C331.333 3.05448 328.946 0.666667 326 0.666667C323.054 0.666667 320.667 3.05448 320.667 6ZM6 7H326V5H6V7Z" fill="#FFCEA2"/>
</svg>
