<svg width="50" height="50" viewBox="0 0 50 50" fill="none" xmlns="http://www.w3.org/2000/svg">
<path d="M25.5206 22.5055C23.7725 22.4871 22.069 21.9519 20.6244 20.9674C19.1798 19.9828 18.0589 18.5928 17.4026 16.9725C16.7463 15.3521 16.5842 13.5739 16.9364 11.8615C17.2887 10.1492 18.1398 8.57939 19.3824 7.34972C20.625 6.12005 22.2036 5.28551 23.9196 4.95116C25.6355 4.61682 27.412 4.79762 29.0253 5.47081C30.6387 6.14399 32.0169 7.27946 32.9863 8.73426C33.9557 10.1891 34.473 11.8981 34.4731 13.6463C34.4566 16.007 33.5052 18.265 31.8272 19.9255C30.1492 21.5861 27.8814 22.5138 25.5206 22.5055ZM25.5206 7.89563C24.3874 7.91401 23.2849 8.26684 22.3515 8.9098C21.4182 9.55277 20.6956 10.4572 20.2746 11.5095C19.8536 12.5618 19.753 13.715 19.9853 14.8243C20.2176 15.9336 20.7725 16.9496 21.5804 17.7445C22.3882 18.5395 23.4129 19.078 24.5258 19.2924C25.6387 19.5068 26.7902 19.3876 27.8356 18.9498C28.881 18.5119 29.7737 17.7749 30.4015 16.8313C31.0294 15.8878 31.3644 14.7797 31.3646 13.6463C31.3482 12.1101 30.7242 10.6428 29.6292 9.56517C28.5341 8.48758 27.057 7.88733 25.5206 7.89563V7.89563Z" fill="#425C5A"/>
<path d="M25.5206 22.5055C23.7725 22.4871 22.069 21.9519 20.6244 20.9674C19.1798 19.9828 18.0589 18.5928 17.4026 16.9725C16.7463 15.3521 16.5842 13.5739 16.9364 11.8615C17.2887 10.1492 18.1398 8.57939 19.3824 7.34972C20.625 6.12005 22.2036 5.28551 23.9196 4.95116C25.6355 4.61682 27.412 4.79762 29.0253 5.47081C30.6387 6.14399 32.0169 7.27946 32.9863 8.73426C33.9557 10.1891 34.473 11.8981 34.4731 13.6463C34.4566 16.007 33.5052 18.265 31.8272 19.9255C30.1492 21.5861 27.8814 22.5138 25.5206 22.5055ZM25.5206 7.89563C24.3874 7.91401 23.2849 8.26684 22.3515 8.9098C21.4182 9.55277 20.6956 10.4572 20.2746 11.5095C19.8536 12.5618 19.753 13.715 19.9853 14.8243C20.2176 15.9336 20.7725 16.9496 21.5804 17.7445C22.3882 18.5395 23.4129 19.078 24.5258 19.2924C25.6387 19.5068 26.7902 19.3876 27.8356 18.9498C28.881 18.5119 29.7737 17.7749 30.4015 16.8313C31.0294 15.8878 31.3644 14.7797 31.3646 13.6463C31.3482 12.1101 30.7242 10.6428 29.6292 9.56517C28.5341 8.48758 27.057 7.88733 25.5206 7.89563V7.89563Z" fill="#425C5A"/>
<path d="M30.945 24.5884C24.0512 23.3888 16.9542 24.4806 10.7398 27.6969C10.2987 27.9418 9.9334 28.3034 9.68395 28.742C9.4345 29.1806 9.31048 29.6793 9.32545 30.1837V35.7168C9.32545 36.129 9.4892 36.5243 9.78068 36.8158C10.0722 37.1073 10.4675 37.271 10.8797 37.271C11.2919 37.271 11.6872 37.1073 11.9787 36.8158C12.2702 36.5243 12.4339 36.129 12.4339 35.7168V30.3857C18.1966 27.4943 24.7497 26.5768 31.0849 27.7746L30.945 24.5884Z" fill="#425C5A"/>
<path d="M48.1816 31.3491H37.7681V29.0488C37.7681 28.6366 37.6044 28.2413 37.3129 27.9498C37.0214 27.6583 36.6261 27.4946 36.2139 27.4946C35.8017 27.4946 35.4064 27.6583 35.1149 27.9498C34.8234 28.2413 34.6597 28.6366 34.6597 29.0488V31.3491H23.3137C22.9015 31.3491 22.5061 31.5128 22.2147 31.8043C21.9232 32.0958 21.7594 32.4911 21.7594 32.9033V48.4458C21.7594 48.858 21.9232 49.2533 22.2147 49.5448C22.5061 49.8363 22.9015 50 23.3137 50H48.1816C48.5938 50 48.9891 49.8363 49.2806 49.5448C49.5721 49.2533 49.7358 48.858 49.7358 48.4458V32.9033C49.7358 32.4911 49.5721 32.0958 49.2806 31.8043C48.9891 31.5128 48.5938 31.3491 48.1816 31.3491ZM46.6273 46.8915H24.8679V34.4576H34.6597V35.0948C34.6597 35.507 34.8234 35.9024 35.1149 36.1938C35.4064 36.4853 35.8017 36.6491 36.2139 36.6491C36.6261 36.6491 37.0214 36.4853 37.3129 36.1938C37.6044 35.9024 37.7681 35.507 37.7681 35.0948V34.4576H46.6273V46.8915Z" fill="#425C5A"/>
<path d="M30.7896 39.7733H40.0529V41.9493H30.7896V39.7733Z" fill="#425C5A"/>
<path d="M13.7395 16.1799C9.4365 16.2519 5.20811 17.3156 1.38328 19.2884C0.967303 19.5081 0.618865 19.8367 0.375217 20.2392C0.13157 20.6416 0.00187573 21.1027 0 21.5731V26.3913C0 26.8035 0.16375 27.1988 0.455227 27.4903C0.746705 27.7817 1.14203 27.9455 1.55424 27.9455C1.96645 27.9455 2.36178 27.7817 2.65326 27.4903C2.94474 27.1988 3.10849 26.8035 3.10849 26.3913V21.8839C6.76298 20.0649 10.8091 19.1735 14.8897 19.2884C14.3558 18.3143 13.9682 17.2669 13.7395 16.1799V16.1799Z" fill="#425C5A"/>
<path d="M48.3526 19.2729C44.9221 17.4735 41.152 16.4144 37.2863 16.1645C37.0587 17.2495 36.6766 18.2964 36.1517 19.2729C39.7934 19.3601 43.3708 20.2518 46.6273 21.8841V26.3914C46.6273 26.8036 46.7911 27.1989 47.0826 27.4904C47.374 27.7819 47.7694 27.9456 48.1816 27.9456C48.5938 27.9456 48.9891 27.7819 49.2806 27.4904C49.5721 27.1989 49.7358 26.8036 49.7358 26.3914V21.5732C49.7368 21.1002 49.6084 20.6358 49.3646 20.2304C49.1208 19.825 48.7709 19.4939 48.3526 19.2729V19.2729Z" fill="#425C5A"/>
<path d="M13.4597 13.6463C13.4597 13.2888 13.4597 12.9469 13.4597 12.6049C12.2421 12.442 11.1343 11.8157 10.3669 10.8566C9.59942 9.89737 9.23147 8.67915 9.33962 7.45549C9.44777 6.23184 10.0237 5.09704 10.9475 4.28732C11.8712 3.47761 13.0717 3.05537 14.299 3.1085C15.5755 3.10619 16.8025 3.60254 17.7183 4.49178C18.5264 3.82529 19.4139 3.26147 20.3606 2.81319C19.3031 1.59724 17.9019 0.730255 16.3419 0.326511C14.7818 -0.0772321 13.136 0.00121727 11.6214 0.55152C10.1068 1.10182 8.79452 2.09815 7.85748 3.40917C6.92045 4.7202 6.40266 6.28439 6.37236 7.89557C6.40498 9.86753 7.17155 11.7565 8.52235 13.1935C9.87314 14.6305 11.7111 15.5124 13.6773 15.6668C13.5455 15.001 13.4726 14.3249 13.4597 13.6463V13.6463Z" fill="#425C5A"/>
<path d="M35.3902 6.22881e-05C34.3221 0.000297425 33.2647 0.213469 32.28 0.627114C31.2953 1.04076 30.4029 1.64657 29.655 2.40914C30.7057 2.78988 31.6993 3.31283 32.6081 3.96338C33.3337 3.4597 34.1824 3.16238 35.0636 3.10312C35.9449 3.04387 36.8258 3.2249 37.6123 3.62692C38.3988 4.02894 39.0614 4.63687 39.5296 5.3859C39.9977 6.13492 40.2538 6.99695 40.2705 7.88008C40.2607 8.78719 39.9942 9.67299 39.5018 10.4349C39.0095 11.1968 38.3114 11.8037 37.4884 12.1853C37.5509 12.6646 37.5821 13.1474 37.5816 13.6308C37.5775 14.2555 37.5255 14.879 37.4262 15.4959C39.1194 15.0606 40.6212 14.0777 41.6978 12.7003C42.7744 11.3229 43.3655 9.62826 43.379 7.88008C43.3585 5.77766 42.5067 3.7688 41.0099 2.29232C39.513 0.815841 37.4927 -0.00825078 35.3902 6.22881e-05V6.22881e-05Z" fill="#425C5A"/>
</svg>
