<svg width="20" height="24" viewBox="0 0 20 24" fill="none" xmlns="http://www.w3.org/2000/svg">
<path d="M18.2909 18.9818H17.6364V9.70909C17.6364 5.86091 14.7918 2.68091 11.0909 2.15182V1.09091C11.0909 0.488182 10.6027 0 10 0C9.39727 0 8.90909 0.488182 8.90909 1.09091V2.15182C5.20818 2.68091 2.36364 5.86091 2.36364 9.70909V18.9818H1.70909C1.22636 18.9818 0.836365 19.3718 0.836365 19.8545V20.7273C0.836365 20.8473 0.934547 20.9455 1.05455 20.9455H6.94546C6.94546 22.6309 8.31455 24 10 24C11.6855 24 13.0545 22.6309 13.0545 20.9455H18.9455C19.0655 20.9455 19.1636 20.8473 19.1636 20.7273V19.8545C19.1636 19.3718 18.7736 18.9818 18.2909 18.9818ZM10 22.2545C9.27727 22.2545 8.69091 21.6682 8.69091 20.9455H11.3091C11.3091 21.6682 10.7227 22.2545 10 22.2545ZM4.32727 18.9818V9.70909C4.32727 8.19273 4.91636 6.76909 5.98818 5.69727C7.06 4.62545 8.48364 4.03636 10 4.03636C11.5164 4.03636 12.94 4.62545 14.0118 5.69727C15.0836 6.76909 15.6727 8.19273 15.6727 9.70909V18.9818H4.32727Z" fill="white"/>
</svg>
