<svg width="50" height="50" viewBox="0 0 50 50" fill="none" xmlns="http://www.w3.org/2000/svg">
<path d="M25 50C20.0555 50 15.222 48.5338 11.1108 45.7867C6.99952 43.0397 3.79521 39.1352 1.90302 34.5671C0.0108321 29.9989 -0.484251 24.9723 0.480379 20.1228C1.44501 15.2732 3.82603 10.8187 7.32234 7.32234C10.8187 3.82603 15.2732 1.44501 20.1228 0.480379C24.9723 -0.484251 29.9989 0.0108321 34.5671 1.90302C39.1352 3.79521 43.0397 6.99952 45.7867 11.1108C48.5338 15.222 50 20.0555 50 25C50 31.6304 47.3661 37.9893 42.6777 42.6777C37.9893 47.3661 31.6304 50 25 50ZM25 3.57144C20.7618 3.57144 16.6188 4.8282 13.0949 7.1828C9.57102 9.5374 6.82447 12.8841 5.20259 16.7996C3.58071 20.7152 3.15636 25.0238 3.98318 29.1805C4.81001 33.3372 6.85088 37.1555 9.84772 40.1523C12.8446 43.1491 16.6628 45.19 20.8195 46.0168C24.9762 46.8437 29.2848 46.4193 33.2004 44.7974C37.1159 43.1755 40.4626 40.429 42.8172 36.9051C45.1718 33.3812 46.4286 29.2382 46.4286 25C46.4286 19.3168 44.1709 13.8664 40.1523 9.84772C36.1337 5.82908 30.6832 3.57144 25 3.57144V3.57144Z" fill="#425C5A"/>
<path d="M36.9333 20.5614C36.9352 18.5025 36.4167 16.4764 35.426 14.6715C34.4353 12.8666 33.0044 11.3413 31.2664 10.2375C29.5283 9.13361 27.5395 8.48693 25.4846 8.35751C23.4297 8.22808 21.3754 8.62012 19.5126 9.49719C17.6498 10.3743 16.0389 11.7079 14.8295 13.3743C13.6201 15.0406 12.8515 16.9856 12.5951 19.0285C12.3387 21.0714 12.6028 23.146 13.3628 25.0596C14.1228 26.9731 15.3542 28.6636 16.9424 29.9738V40.5523C16.9413 40.7418 16.9893 40.9284 17.0817 41.0939C17.1742 41.2593 17.308 41.398 17.47 41.4963C17.6307 41.5974 17.8146 41.6555 18.0041 41.6652C18.1937 41.6749 18.3826 41.6359 18.5528 41.5519L24.7167 38.456L30.8805 41.5519C31.0381 41.6215 31.208 41.6593 31.3803 41.6629C31.6748 41.6629 31.9573 41.5459 32.1656 41.3376C32.3739 41.1294 32.4909 40.8469 32.4909 40.5523V29.9738C33.8803 28.8301 34.9992 27.393 35.7673 25.7656C36.5353 24.1382 36.9336 22.361 36.9333 20.5614V20.5614ZM14.7212 20.5614C14.7212 18.5845 15.3074 16.652 16.4057 15.0082C17.5041 13.3645 19.0651 12.0834 20.8916 11.3268C22.718 10.5703 24.7277 10.3724 26.6667 10.758C28.6056 11.1437 30.3866 12.0957 31.7845 13.4936C33.1824 14.8915 34.1344 16.6725 34.52 18.6114C34.9057 20.5503 34.7078 22.5601 33.9512 24.3865C33.1947 26.2129 31.9136 27.774 30.2698 28.8723C28.6261 29.9706 26.6936 30.5569 24.7167 30.5569C22.0668 30.5532 19.5266 29.4989 17.6529 27.6252C15.7791 25.7515 14.7249 23.2112 14.7212 20.5614V20.5614ZM30.2697 38.7615L25.2164 36.221C25.0605 36.1459 24.8897 36.1069 24.7167 36.1069C24.5436 36.1069 24.3728 36.1459 24.2169 36.221L19.1636 38.7615V31.4454C20.8835 32.3218 22.7864 32.7786 24.7167 32.7786C26.6469 32.7786 28.5498 32.3218 30.2697 31.4454V38.7615ZM24.7167 28.3357C26.2543 28.3357 27.7573 27.8797 29.0358 27.0255C30.3143 26.1712 31.3107 24.957 31.8991 23.5365C32.4875 22.1159 32.6415 20.5528 32.3415 19.0447C32.0415 17.5367 31.3011 16.1514 30.2139 15.0642C29.1266 13.977 27.7414 13.2365 26.2333 12.9366C24.7253 12.6366 23.1621 12.7905 21.7416 13.379C20.321 13.9674 19.1069 14.9638 18.2526 16.2423C17.3984 17.5208 16.9424 19.0238 16.9424 20.5614C16.9424 22.6233 17.7615 24.6007 19.2194 26.0586C20.6774 27.5166 22.6548 28.3357 24.7167 28.3357ZM24.7167 15.0084C25.8149 15.0084 26.8886 15.3341 27.8018 15.9442C28.7149 16.5544 29.4267 17.4217 29.847 18.4364C30.2673 19.4511 30.3772 20.5676 30.163 21.6448C29.9487 22.7219 29.4198 23.7114 28.6432 24.488C27.8666 25.2646 26.8772 25.7935 25.8 26.0077C24.7228 26.222 23.6063 26.112 22.5916 25.6917C21.5769 25.2715 20.7097 24.5597 20.0995 23.6465C19.4893 22.7333 19.1636 21.6597 19.1636 20.5614C19.1673 19.0898 19.7535 17.6795 20.7941 16.6389C21.8347 15.5983 23.245 15.0121 24.7167 15.0084V15.0084Z" fill="#425C5A"/>
</svg>
